<svg width="100" height="75" viewBox="0 0 100 75" fill="none" xmlns="http://www.w3.org/2000/svg">
<g filter="url(#filter0_b_676_3149)">
<path fill-rule="evenodd" clip-rule="evenodd" d="M81.0878 63.4109C89.2113 62.4232 95.5044 55.5029 95.5044 47.1128C95.5044 39.4759 90.2905 33.0568 83.2281 31.2209C81.3368 17.3524 69.4451 6.66595 55.0575 6.66595C44.6333 6.66595 35.5194 12.2756 30.5698 20.6409C29.2907 20.4051 27.9722 20.2819 26.625 20.2819C14.6818 20.2819 5 29.9637 5 41.9069C5 53.85 14.6818 63.5319 26.625 63.5319C27.1729 63.5319 27.716 63.5115 28.2537 63.4715H49.8517V63.5318H81.0878V63.4109ZM53.3914 31.2252C53.3914 30.3643 52.6935 29.6664 51.8326 29.6664C50.9717 29.6664 50.2738 30.3643 50.2738 31.2252V36.9403H44.5588C43.6979 36.9403 43 37.6382 43 38.499C43 39.3599 43.6979 40.0578 44.5588 40.0578H50.2738V45.7737C50.2738 46.6346 50.9717 47.3325 51.8326 47.3325C52.6935 47.3325 53.3914 46.6346 53.3914 45.7737V40.0578H59.1073C59.9681 40.0578 60.666 39.3599 60.666 38.499C60.666 37.6382 59.9681 36.9403 59.1073 36.9403H53.3914V31.2252Z" fill="white" fill-opacity="0.85"/>
</g>
<defs>
<filter id="filter0_b_676_3149" x="-5" y="-3.33405" width="110.504" height="76.8659" filterUnits="userSpaceOnUse" color-interpolation-filters="sRGB">
<feFlood flood-opacity="0" result="BackgroundImageFix"/>
<feGaussianBlur in="BackgroundImage" stdDeviation="5"/>
<feComposite in2="SourceAlpha" operator="in" result="effect1_backgroundBlur_676_3149"/>
<feBlend mode="normal" in="SourceGraphic" in2="effect1_backgroundBlur_676_3149" result="shape"/>
</filter>
</defs>
</svg>
