<svg width="97" height="79" viewBox="0 0 97 79" fill="none" xmlns="http://www.w3.org/2000/svg">
<g filter="url(#filter0_bd_293_2)">
<path d="M93 35.5C93 55.1061 77.1061 71 57.5 71C57.0028 71 56.5081 70.9898 56.0159 70.9695C56.0072 70.9692 56 70.9761 56 70.9848C56 70.9932 55.9932 71 55.9848 71H22.0133C22.0059 71 22 70.9941 22 70.9867C22 70.9797 21.9944 70.9739 21.9874 70.9735C11.9647 70.4472 4 62.1537 4 52C4 42.7252 10.6456 35.0025 19.4349 33.3339C20.9304 33.05 22.1504 31.8718 22.3686 30.3652C24.8567 13.1923 39.6377 0 57.5 0C77.1061 0 93 15.8939 93 35.5Z" fill="url(#paint0_linear_293_2)" fill-opacity="0.7" shape-rendering="crispEdges"/>
</g>
<g filter="url(#filter1_b_293_2)">
<path fill-rule="evenodd" clip-rule="evenodd" d="M58 28.5C58 27.6716 57.3284 27 56.5 27C55.6716 27 55 27.6716 55 28.5V34H49.5C48.6716 34 48 34.6716 48 35.5C48 36.3284 48.6716 37 49.5 37H55V42.5C55 43.3284 55.6716 44 56.5 44C57.3284 44 58 43.3284 58 42.5V37H63.5C64.3284 37 65 36.3284 65 35.5C65 34.6716 64.3284 34 63.5 34H58V28.5Z" fill="white"/>
</g>
<defs>
<filter id="filter0_bd_293_2" x="-6" y="-10" width="109" height="91" filterUnits="userSpaceOnUse" color-interpolation-filters="sRGB">
<feFlood flood-opacity="0" result="BackgroundImageFix"/>
<feGaussianBlur in="BackgroundImage" stdDeviation="5"/>
<feComposite in2="SourceAlpha" operator="in" result="effect1_backgroundBlur_293_2"/>
<feColorMatrix in="SourceAlpha" type="matrix" values="0 0 0 0 0 0 0 0 0 0 0 0 0 0 0 0 0 0 127 0" result="hardAlpha"/>
<feOffset dy="4"/>
<feGaussianBlur stdDeviation="2"/>
<feComposite in2="hardAlpha" operator="out"/>
<feColorMatrix type="matrix" values="0 0 0 0 0 0 0 0 0 0 0 0 0 0 0 0 0 0 0.25 0"/>
<feBlend mode="normal" in2="effect1_backgroundBlur_293_2" result="effect2_dropShadow_293_2"/>
<feBlend mode="normal" in="SourceGraphic" in2="effect2_dropShadow_293_2" result="shape"/>
</filter>
<filter id="filter1_b_293_2" x="38" y="17" width="37" height="37" filterUnits="userSpaceOnUse" color-interpolation-filters="sRGB">
<feFlood flood-opacity="0" result="BackgroundImageFix"/>
<feGaussianBlur in="BackgroundImage" stdDeviation="5"/>
<feComposite in2="SourceAlpha" operator="in" result="effect1_backgroundBlur_293_2"/>
<feBlend mode="normal" in="SourceGraphic" in2="effect1_backgroundBlur_293_2" result="shape"/>
</filter>
<linearGradient id="paint0_linear_293_2" x1="83" y1="71" x2="28" y2="-8" gradientUnits="userSpaceOnUse">
<stop stop-color="white" stop-opacity="0"/>
<stop offset="1" stop-color="white" stop-opacity="0.8"/>
</linearGradient>
</defs>
</svg>
