<svg width="390" height="844" viewBox="0 0 390 844" fill="none" xmlns="http://www.w3.org/2000/svg">
<mask id="mask0_652_4591" style="mask-type:alpha" maskUnits="userSpaceOnUse" x="0" y="0" width="390" height="844">
<rect width="390" height="844" fill="#C4C4C4"/>
</mask>
<g mask="url(#mask0_652_4591)">
<rect width="390" height="844" fill="#191927"/>
<g opacity="0.11" filter="url(#filter0_f_652_4591)">
<path d="M353.543 180.327C306.593 204.619 218.83 207.829 263.381 242.176C291.441 271.419 383.658 250.516 442.172 234.114C470.724 226.111 478.975 259.282 489.909 233.448C545.055 103.161 424.748 75.9807 393.115 113.89C377.702 132.36 376.635 168.379 353.543 180.327Z" fill="#6F5ED6" fill-opacity="0.5"/>
</g>
<g opacity="0.4">
<g opacity="0.1" filter="url(#filter1_f_652_4591)">
<path d="M141.793 376.402C141.793 403.017 113.793 433.902 76.2932 441.902C38.7932 449.902 -12.7068 427.902 -38.798 387.187C-56.809 359.081 -53.2276 335.109 -38.798 318.402C-15.8111 291.787 3.36887 282.731 56.7932 290.902C99.2932 297.402 141.793 324.728 141.793 376.402Z" fill="#5678F0"/>
</g>
<g opacity="0.33" filter="url(#filter2_f_652_4591)">
<path d="M53.5776 385.276C15.7678 409.215 -16.2653 484.331 -0.0208689 525.499C7.09487 557.225 107.369 562.897 142.979 543.499C163.152 532.511 184.251 529.179 197.345 508.952C236.479 448.499 215.998 402.485 181.979 380.499C144.608 356.346 87.8054 363.605 53.5776 385.276Z" fill="#6F5ED6"/>
</g>
<g opacity="0.3" filter="url(#filter3_f_652_4591)">
<path d="M-126.82 504.761C-176.045 531.592 -147.331 570.173 -126.82 586.109C-112.912 599.667 -83.1758 586.109 -32.3766 599.667C18.4226 613.225 142.489 602.306 97.5 515.6C70 462.6 44 465.1 17.5 396.1C-3.31241 341.909 -65.2888 471.223 -126.82 504.761Z" fill="#C37CE1"/>
</g>
</g>
<g filter="url(#filter4_f_652_4591)">
<path d="M277.697 428.79C214.858 463.028 251.514 512.259 277.697 532.595C295.451 549.896 333.412 532.595 398.26 549.896C463.109 567.197 516.997 509.831 548.965 436.075C580.932 362.318 496.914 436.567 438.459 391.039C380.004 345.51 356.246 385.993 277.697 428.79Z" fill="#F08156" fill-opacity="0.05"/>
</g>
<g opacity="0.4">
<g opacity="0.6" filter="url(#filter5_f_652_4591)">
<path d="M361.234 707.846C361.264 707.419 361.891 707.419 361.921 707.846L362.572 717.027C362.583 717.183 362.699 717.313 362.854 717.341L367.313 718.161C367.69 718.23 367.69 718.77 367.313 718.839L362.854 719.659C362.699 719.687 362.583 719.817 362.572 719.973L361.921 729.154C361.891 729.581 361.264 729.581 361.234 729.154L360.583 719.973C360.572 719.817 360.456 719.687 360.302 719.659L355.842 718.839C355.466 718.77 355.466 718.23 355.842 718.161L360.302 717.341C360.456 717.313 360.572 717.183 360.583 717.027L361.234 707.846Z" fill="#EFEFEF"/>
</g>
<g opacity="0.05" filter="url(#filter6_b_652_4591)">
<circle cx="273" cy="122" r="11" fill="url(#paint0_linear_652_4591)"/>
</g>
<g opacity="0.05" filter="url(#filter7_bf_652_4591)">
<circle cx="283" cy="172" r="26" fill="url(#paint1_linear_652_4591)"/>
</g>
<g opacity="0.2" filter="url(#filter8_bf_652_4591)">
<circle cx="283" cy="172" r="9" fill="url(#paint2_linear_652_4591)"/>
</g>
<g filter="url(#filter9_bf_652_4591)">
<circle cx="283" cy="172" r="5" fill="url(#paint3_linear_652_4591)"/>
</g>
<g opacity="0.05" filter="url(#filter10_f_652_4591)">
<circle cx="62" cy="724" r="26" fill="url(#paint4_linear_652_4591)"/>
</g>
<g opacity="0.05" filter="url(#filter11_b_652_4591)">
<circle cx="62" cy="724" r="11" fill="url(#paint5_linear_652_4591)"/>
</g>
<g opacity="0.2" filter="url(#filter12_f_652_4591)">
<circle cx="62" cy="724" r="9" fill="url(#paint6_linear_652_4591)"/>
</g>
<g opacity="0.1" filter="url(#filter13_f_652_4591)">
<circle cx="106" cy="426" r="14" fill="url(#paint7_linear_652_4591)"/>
</g>
<g opacity="0.2" filter="url(#filter14_f_652_4591)">
<circle cx="106" cy="426" r="7" fill="url(#paint8_linear_652_4591)"/>
</g>
<g filter="url(#filter15_f_652_4591)">
<circle cx="106" cy="426" r="4" fill="url(#paint9_linear_652_4591)"/>
</g>
<g opacity="0.1" filter="url(#filter16_bf_652_4591)">
<circle cx="386" cy="289" r="27" fill="url(#paint10_linear_652_4591)" fill-opacity="0.2"/>
</g>
<g opacity="0.2" filter="url(#filter17_bf_652_4591)">
<circle cx="385.5" cy="289.5" r="13.5" fill="url(#paint11_linear_652_4591)" fill-opacity="0.2"/>
</g>
<g filter="url(#filter18_bf_652_4591)">
<circle cx="386" cy="289" r="7" fill="url(#paint12_linear_652_4591)" fill-opacity="0.2"/>
</g>
<g filter="url(#filter19_f_652_4591)">
<g opacity="0.1" filter="url(#filter20_b_652_4591)">
<circle cx="46" cy="499" r="27" fill="url(#paint13_linear_652_4591)"/>
</g>
<g opacity="0.2" filter="url(#filter21_b_652_4591)">
<circle cx="45.5" cy="499.5" r="13.5" fill="url(#paint14_linear_652_4591)"/>
</g>
<g filter="url(#filter22_b_652_4591)">
<circle cx="46" cy="499" r="7" fill="url(#paint15_linear_652_4591)"/>
</g>
</g>
<g filter="url(#filter23_f_652_4591)">
<circle cx="62" cy="724" r="5" fill="url(#paint16_linear_652_4591)"/>
</g>
<g filter="url(#filter24_d_652_4591)">
<path d="M291.534 455.377C291.561 454.992 292.127 454.992 292.155 455.377L292.743 463.669C292.753 463.811 292.857 463.928 292.997 463.953L297.025 464.694C297.365 464.757 297.365 465.243 297.025 465.306L292.997 466.047C292.857 466.072 292.753 466.189 292.743 466.331L292.155 474.623C292.127 475.008 291.561 475.008 291.534 474.623L290.946 466.331C290.936 466.189 290.832 466.072 290.692 466.047L286.664 465.306C286.324 465.243 286.324 464.757 286.664 464.694L290.692 463.953C290.832 463.928 290.936 463.811 290.946 463.669L291.534 455.377Z" fill="#EFEFEF"/>
</g>
<g filter="url(#filter25_f_652_4591)">
<path d="M44.5785 670.752C44.6019 670.421 45.087 670.421 45.1104 670.752L45.6144 677.859C45.623 677.981 45.7125 678.081 45.8321 678.103L49.2849 678.738C49.5761 678.791 49.5761 679.209 49.2849 679.262L45.8321 679.897C45.7125 679.919 45.623 680.019 45.6144 680.141L45.1104 687.248C45.087 687.579 44.6019 687.579 44.5785 687.248L44.0745 680.141C44.0659 680.019 43.9764 679.919 43.8568 679.897L40.404 679.262C40.1128 679.209 40.1128 678.791 40.404 678.738L43.8568 678.103C43.9764 678.081 44.0659 677.981 44.0745 677.859L44.5785 670.752Z" fill="#EFEFEF"/>
</g>
<g filter="url(#filter26_df_652_4591)">
<path d="M314.601 184.752C314.624 184.421 315.109 184.421 315.133 184.752L315.637 191.859C315.645 191.981 315.735 192.081 315.854 192.103L319.307 192.738C319.598 192.791 319.598 193.209 319.307 193.262L315.854 193.897C315.735 193.919 315.645 194.019 315.637 194.141L315.133 201.248C315.109 201.579 314.624 201.579 314.601 201.248L314.097 194.141C314.088 194.019 313.999 193.919 313.879 193.897L310.426 193.262C310.135 193.209 310.135 192.791 310.426 192.738L313.879 192.103C313.999 192.081 314.088 191.981 314.097 191.859L314.601 184.752Z" fill="#EFEFEF" fill-opacity="0.3" shape-rendering="crispEdges"/>
</g>
<g opacity="0.5" filter="url(#filter27_df_652_4591)">
<path d="M20.1339 249.439C20.1554 249.136 20.6001 249.136 20.6216 249.439L21.0835 255.954C21.0914 256.066 21.1735 256.157 21.2832 256.178L24.4482 256.76C24.7151 256.809 24.7151 257.191 24.4482 257.24L21.2832 257.822C21.1735 257.843 21.0914 257.934 21.0835 258.046L20.6216 264.561C20.6001 264.864 20.1554 264.864 20.1339 264.561L19.672 258.046C19.6641 257.934 19.582 257.843 19.4724 257.822L16.3074 257.24C16.0404 257.191 16.0404 256.809 16.3074 256.76L19.4724 256.178C19.582 256.157 19.6641 256.066 19.672 255.954L20.1339 249.439Z" fill="#EFEFEF" fill-opacity="0.1" shape-rendering="crispEdges"/>
</g>
<g filter="url(#filter28_f_652_4591)">
<g opacity="0.1" filter="url(#filter29_b_652_4591)">
<circle cx="280" cy="583" r="19" fill="url(#paint17_linear_652_4591)"/>
</g>
<g opacity="0.2" filter="url(#filter30_b_652_4591)">
<circle cx="279.5" cy="583.5" r="9.5" fill="url(#paint18_linear_652_4591)"/>
</g>
<g filter="url(#filter31_b_652_4591)">
<circle cx="280" cy="583" r="5" fill="url(#paint19_linear_652_4591)"/>
</g>
</g>
</g>
<g filter="url(#filter32_f_652_4591)">
<path d="M150.208 385.222C109.987 407.212 133.449 438.833 150.208 451.894C161.572 463.007 185.869 451.894 227.375 463.006C268.882 474.118 303.373 437.273 323.834 389.901C344.295 342.529 299.866 341.944 262.451 312.702C225.037 283.46 200.484 357.735 150.208 385.222Z" fill="#C37CE1" fill-opacity="0.05"/>
</g>
</g>
<defs>
<filter id="filter0_f_652_4591" x="211.127" y="58.1668" width="333.049" height="238.646" filterUnits="userSpaceOnUse" color-interpolation-filters="sRGB">
<feFlood flood-opacity="0" result="BackgroundImageFix"/>
<feBlend mode="normal" in="SourceGraphic" in2="BackgroundImageFix" result="shape"/>
<feGaussianBlur stdDeviation="20" result="effect1_foregroundBlur_652_4591"/>
</filter>
<filter id="filter1_f_652_4591" x="-111" y="228" width="312.793" height="275.53" filterUnits="userSpaceOnUse" color-interpolation-filters="sRGB">
<feFlood flood-opacity="0" result="BackgroundImageFix"/>
<feBlend mode="normal" in="SourceGraphic" in2="BackgroundImageFix" result="shape"/>
<feGaussianBlur stdDeviation="30" result="effect1_foregroundBlur_652_4591"/>
</filter>
<filter id="filter2_f_652_4591" x="-84.3492" y="285.412" width="383.014" height="349.288" filterUnits="userSpaceOnUse" color-interpolation-filters="sRGB">
<feFlood flood-opacity="0" result="BackgroundImageFix"/>
<feBlend mode="normal" in="SourceGraphic" in2="BackgroundImageFix" result="shape"/>
<feGaussianBlur stdDeviation="40" result="effect1_foregroundBlur_652_4591"/>
</filter>
<filter id="filter3_f_652_4591" x="-214" y="323" width="381.152" height="341.517" filterUnits="userSpaceOnUse" color-interpolation-filters="sRGB">
<feFlood flood-opacity="0" result="BackgroundImageFix"/>
<feBlend mode="normal" in="SourceGraphic" in2="BackgroundImageFix" result="shape"/>
<feGaussianBlur stdDeviation="30" result="effect1_foregroundBlur_652_4591"/>
</filter>
<filter id="filter4_f_652_4591" x="181" y="309" width="437" height="306" filterUnits="userSpaceOnUse" color-interpolation-filters="sRGB">
<feFlood flood-opacity="0" result="BackgroundImageFix"/>
<feBlend mode="normal" in="SourceGraphic" in2="BackgroundImageFix" result="shape"/>
<feGaussianBlur stdDeviation="31" result="effect1_foregroundBlur_652_4591"/>
</filter>
<filter id="filter5_f_652_4591" x="351.56" y="703.526" width="20.0354" height="29.9481" filterUnits="userSpaceOnUse" color-interpolation-filters="sRGB">
<feFlood flood-opacity="0" result="BackgroundImageFix"/>
<feBlend mode="normal" in="SourceGraphic" in2="BackgroundImageFix" result="shape"/>
<feGaussianBlur stdDeviation="2" result="effect1_foregroundBlur_652_4591"/>
</filter>
<filter id="filter6_b_652_4591" x="252" y="101" width="42" height="42" filterUnits="userSpaceOnUse" color-interpolation-filters="sRGB">
<feFlood flood-opacity="0" result="BackgroundImageFix"/>
<feGaussianBlur in="BackgroundImage" stdDeviation="5"/>
<feComposite in2="SourceAlpha" operator="in" result="effect1_backgroundBlur_652_4591"/>
<feBlend mode="normal" in="SourceGraphic" in2="effect1_backgroundBlur_652_4591" result="shape"/>
</filter>
<filter id="filter7_bf_652_4591" x="247" y="136" width="72" height="72" filterUnits="userSpaceOnUse" color-interpolation-filters="sRGB">
<feFlood flood-opacity="0" result="BackgroundImageFix"/>
<feGaussianBlur in="BackgroundImage" stdDeviation="5"/>
<feComposite in2="SourceAlpha" operator="in" result="effect1_backgroundBlur_652_4591"/>
<feBlend mode="normal" in="SourceGraphic" in2="effect1_backgroundBlur_652_4591" result="shape"/>
<feGaussianBlur stdDeviation="2" result="effect2_foregroundBlur_652_4591"/>
</filter>
<filter id="filter8_bf_652_4591" x="264" y="153" width="38" height="38" filterUnits="userSpaceOnUse" color-interpolation-filters="sRGB">
<feFlood flood-opacity="0" result="BackgroundImageFix"/>
<feGaussianBlur in="BackgroundImage" stdDeviation="5"/>
<feComposite in2="SourceAlpha" operator="in" result="effect1_backgroundBlur_652_4591"/>
<feBlend mode="normal" in="SourceGraphic" in2="effect1_backgroundBlur_652_4591" result="shape"/>
<feGaussianBlur stdDeviation="2" result="effect2_foregroundBlur_652_4591"/>
</filter>
<filter id="filter9_bf_652_4591" x="268" y="157" width="30" height="30" filterUnits="userSpaceOnUse" color-interpolation-filters="sRGB">
<feFlood flood-opacity="0" result="BackgroundImageFix"/>
<feGaussianBlur in="BackgroundImage" stdDeviation="5"/>
<feComposite in2="SourceAlpha" operator="in" result="effect1_backgroundBlur_652_4591"/>
<feBlend mode="normal" in="SourceGraphic" in2="effect1_backgroundBlur_652_4591" result="shape"/>
<feGaussianBlur stdDeviation="2" result="effect2_foregroundBlur_652_4591"/>
</filter>
<filter id="filter10_f_652_4591" x="32" y="694" width="60" height="60" filterUnits="userSpaceOnUse" color-interpolation-filters="sRGB">
<feFlood flood-opacity="0" result="BackgroundImageFix"/>
<feBlend mode="normal" in="SourceGraphic" in2="BackgroundImageFix" result="shape"/>
<feGaussianBlur stdDeviation="2" result="effect1_foregroundBlur_652_4591"/>
</filter>
<filter id="filter11_b_652_4591" x="41" y="703" width="42" height="42" filterUnits="userSpaceOnUse" color-interpolation-filters="sRGB">
<feFlood flood-opacity="0" result="BackgroundImageFix"/>
<feGaussianBlur in="BackgroundImage" stdDeviation="5"/>
<feComposite in2="SourceAlpha" operator="in" result="effect1_backgroundBlur_652_4591"/>
<feBlend mode="normal" in="SourceGraphic" in2="effect1_backgroundBlur_652_4591" result="shape"/>
</filter>
<filter id="filter12_f_652_4591" x="49" y="711" width="26" height="26" filterUnits="userSpaceOnUse" color-interpolation-filters="sRGB">
<feFlood flood-opacity="0" result="BackgroundImageFix"/>
<feBlend mode="normal" in="SourceGraphic" in2="BackgroundImageFix" result="shape"/>
<feGaussianBlur stdDeviation="2" result="effect1_foregroundBlur_652_4591"/>
</filter>
<filter id="filter13_f_652_4591" x="82" y="402" width="48" height="48" filterUnits="userSpaceOnUse" color-interpolation-filters="sRGB">
<feFlood flood-opacity="0" result="BackgroundImageFix"/>
<feBlend mode="normal" in="SourceGraphic" in2="BackgroundImageFix" result="shape"/>
<feGaussianBlur stdDeviation="5" result="effect1_foregroundBlur_652_4591"/>
</filter>
<filter id="filter14_f_652_4591" x="89" y="409" width="34" height="34" filterUnits="userSpaceOnUse" color-interpolation-filters="sRGB">
<feFlood flood-opacity="0" result="BackgroundImageFix"/>
<feBlend mode="normal" in="SourceGraphic" in2="BackgroundImageFix" result="shape"/>
<feGaussianBlur stdDeviation="5" result="effect1_foregroundBlur_652_4591"/>
</filter>
<filter id="filter15_f_652_4591" x="92" y="412" width="28" height="28" filterUnits="userSpaceOnUse" color-interpolation-filters="sRGB">
<feFlood flood-opacity="0" result="BackgroundImageFix"/>
<feBlend mode="normal" in="SourceGraphic" in2="BackgroundImageFix" result="shape"/>
<feGaussianBlur stdDeviation="5" result="effect1_foregroundBlur_652_4591"/>
</filter>
<filter id="filter16_bf_652_4591" x="349" y="252" width="74" height="74" filterUnits="userSpaceOnUse" color-interpolation-filters="sRGB">
<feFlood flood-opacity="0" result="BackgroundImageFix"/>
<feGaussianBlur in="BackgroundImage" stdDeviation="5"/>
<feComposite in2="SourceAlpha" operator="in" result="effect1_backgroundBlur_652_4591"/>
<feBlend mode="normal" in="SourceGraphic" in2="effect1_backgroundBlur_652_4591" result="shape"/>
<feGaussianBlur stdDeviation="2" result="effect2_foregroundBlur_652_4591"/>
</filter>
<filter id="filter17_bf_652_4591" x="362" y="266" width="47" height="47" filterUnits="userSpaceOnUse" color-interpolation-filters="sRGB">
<feFlood flood-opacity="0" result="BackgroundImageFix"/>
<feGaussianBlur in="BackgroundImage" stdDeviation="5"/>
<feComposite in2="SourceAlpha" operator="in" result="effect1_backgroundBlur_652_4591"/>
<feBlend mode="normal" in="SourceGraphic" in2="effect1_backgroundBlur_652_4591" result="shape"/>
<feGaussianBlur stdDeviation="2" result="effect2_foregroundBlur_652_4591"/>
</filter>
<filter id="filter18_bf_652_4591" x="369" y="272" width="34" height="34" filterUnits="userSpaceOnUse" color-interpolation-filters="sRGB">
<feFlood flood-opacity="0" result="BackgroundImageFix"/>
<feGaussianBlur in="BackgroundImage" stdDeviation="5"/>
<feComposite in2="SourceAlpha" operator="in" result="effect1_backgroundBlur_652_4591"/>
<feBlend mode="normal" in="SourceGraphic" in2="effect1_backgroundBlur_652_4591" result="shape"/>
<feGaussianBlur stdDeviation="2" result="effect2_foregroundBlur_652_4591"/>
</filter>
<filter id="filter19_f_652_4591" x="15" y="468" width="62" height="62" filterUnits="userSpaceOnUse" color-interpolation-filters="sRGB">
<feFlood flood-opacity="0" result="BackgroundImageFix"/>
<feBlend mode="normal" in="SourceGraphic" in2="BackgroundImageFix" result="shape"/>
<feGaussianBlur stdDeviation="2" result="effect1_foregroundBlur_652_4591"/>
</filter>
<filter id="filter20_b_652_4591" x="9" y="462" width="74" height="74" filterUnits="userSpaceOnUse" color-interpolation-filters="sRGB">
<feFlood flood-opacity="0" result="BackgroundImageFix"/>
<feGaussianBlur in="BackgroundImage" stdDeviation="5"/>
<feComposite in2="SourceAlpha" operator="in" result="effect1_backgroundBlur_652_4591"/>
<feBlend mode="normal" in="SourceGraphic" in2="effect1_backgroundBlur_652_4591" result="shape"/>
</filter>
<filter id="filter21_b_652_4591" x="22" y="476" width="47" height="47" filterUnits="userSpaceOnUse" color-interpolation-filters="sRGB">
<feFlood flood-opacity="0" result="BackgroundImageFix"/>
<feGaussianBlur in="BackgroundImage" stdDeviation="5"/>
<feComposite in2="SourceAlpha" operator="in" result="effect1_backgroundBlur_652_4591"/>
<feBlend mode="normal" in="SourceGraphic" in2="effect1_backgroundBlur_652_4591" result="shape"/>
</filter>
<filter id="filter22_b_652_4591" x="29" y="482" width="34" height="34" filterUnits="userSpaceOnUse" color-interpolation-filters="sRGB">
<feFlood flood-opacity="0" result="BackgroundImageFix"/>
<feGaussianBlur in="BackgroundImage" stdDeviation="5"/>
<feComposite in2="SourceAlpha" operator="in" result="effect1_backgroundBlur_652_4591"/>
<feBlend mode="normal" in="SourceGraphic" in2="effect1_backgroundBlur_652_4591" result="shape"/>
</filter>
<filter id="filter23_f_652_4591" x="53" y="715" width="18" height="18" filterUnits="userSpaceOnUse" color-interpolation-filters="sRGB">
<feFlood flood-opacity="0" result="BackgroundImageFix"/>
<feBlend mode="normal" in="SourceGraphic" in2="BackgroundImageFix" result="shape"/>
<feGaussianBlur stdDeviation="2" result="effect1_foregroundBlur_652_4591"/>
</filter>
<filter id="filter24_d_652_4591" x="279.565" y="448.244" width="24.5596" height="33.5129" filterUnits="userSpaceOnUse" color-interpolation-filters="sRGB">
<feFlood flood-opacity="0" result="BackgroundImageFix"/>
<feColorMatrix in="SourceAlpha" type="matrix" values="0 0 0 0 0 0 0 0 0 0 0 0 0 0 0 0 0 0 127 0" result="hardAlpha"/>
<feOffset/>
<feGaussianBlur stdDeviation="3.42222"/>
<feComposite in2="hardAlpha" operator="out"/>
<feColorMatrix type="matrix" values="0 0 0 0 1 0 0 0 0 1 0 0 0 0 1 0 0 0 1 0"/>
<feBlend mode="normal" in2="BackgroundImageFix" result="effect1_dropShadow_652_4591"/>
<feBlend mode="normal" in="SourceGraphic" in2="effect1_dropShadow_652_4591" result="shape"/>
</filter>
<filter id="filter25_f_652_4591" x="36.1855" y="666.504" width="17.3177" height="24.992" filterUnits="userSpaceOnUse" color-interpolation-filters="sRGB">
<feFlood flood-opacity="0" result="BackgroundImageFix"/>
<feBlend mode="normal" in="SourceGraphic" in2="BackgroundImageFix" result="shape"/>
<feGaussianBlur stdDeviation="2" result="effect1_foregroundBlur_652_4591"/>
</filter>
<filter id="filter26_df_652_4591" x="304.341" y="178.637" width="21.0511" height="28.7254" filterUnits="userSpaceOnUse" color-interpolation-filters="sRGB">
<feFlood flood-opacity="0" result="BackgroundImageFix"/>
<feColorMatrix in="SourceAlpha" type="matrix" values="0 0 0 0 0 0 0 0 0 0 0 0 0 0 0 0 0 0 127 0" result="hardAlpha"/>
<feOffset/>
<feGaussianBlur stdDeviation="2.93333"/>
<feComposite in2="hardAlpha" operator="out"/>
<feColorMatrix type="matrix" values="0 0 0 0 1 0 0 0 0 1 0 0 0 0 1 0 0 0 1 0"/>
<feBlend mode="normal" in2="BackgroundImageFix" result="effect1_dropShadow_652_4591"/>
<feBlend mode="normal" in="SourceGraphic" in2="effect1_dropShadow_652_4591" result="shape"/>
<feGaussianBlur stdDeviation="2" result="effect2_foregroundBlur_652_4591"/>
</filter>
<filter id="filter27_df_652_4591" x="10.7294" y="243.834" width="19.2968" height="26.3316" filterUnits="userSpaceOnUse" color-interpolation-filters="sRGB">
<feFlood flood-opacity="0" result="BackgroundImageFix"/>
<feColorMatrix in="SourceAlpha" type="matrix" values="0 0 0 0 0 0 0 0 0 0 0 0 0 0 0 0 0 0 127 0" result="hardAlpha"/>
<feOffset/>
<feGaussianBlur stdDeviation="2.68889"/>
<feComposite in2="hardAlpha" operator="out"/>
<feColorMatrix type="matrix" values="0 0 0 0 1 0 0 0 0 1 0 0 0 0 1 0 0 0 1 0"/>
<feBlend mode="normal" in2="BackgroundImageFix" result="effect1_dropShadow_652_4591"/>
<feBlend mode="normal" in="SourceGraphic" in2="effect1_dropShadow_652_4591" result="shape"/>
<feGaussianBlur stdDeviation="2" result="effect2_foregroundBlur_652_4591"/>
</filter>
<filter id="filter28_f_652_4591" x="257" y="560" width="46" height="46" filterUnits="userSpaceOnUse" color-interpolation-filters="sRGB">
<feFlood flood-opacity="0" result="BackgroundImageFix"/>
<feBlend mode="normal" in="SourceGraphic" in2="BackgroundImageFix" result="shape"/>
<feGaussianBlur stdDeviation="2" result="effect1_foregroundBlur_652_4591"/>
</filter>
<filter id="filter29_b_652_4591" x="251" y="554" width="58" height="58" filterUnits="userSpaceOnUse" color-interpolation-filters="sRGB">
<feFlood flood-opacity="0" result="BackgroundImageFix"/>
<feGaussianBlur in="BackgroundImage" stdDeviation="5"/>
<feComposite in2="SourceAlpha" operator="in" result="effect1_backgroundBlur_652_4591"/>
<feBlend mode="normal" in="SourceGraphic" in2="effect1_backgroundBlur_652_4591" result="shape"/>
</filter>
<filter id="filter30_b_652_4591" x="260" y="564" width="39" height="39" filterUnits="userSpaceOnUse" color-interpolation-filters="sRGB">
<feFlood flood-opacity="0" result="BackgroundImageFix"/>
<feGaussianBlur in="BackgroundImage" stdDeviation="5"/>
<feComposite in2="SourceAlpha" operator="in" result="effect1_backgroundBlur_652_4591"/>
<feBlend mode="normal" in="SourceGraphic" in2="effect1_backgroundBlur_652_4591" result="shape"/>
</filter>
<filter id="filter31_b_652_4591" x="265" y="568" width="30" height="30" filterUnits="userSpaceOnUse" color-interpolation-filters="sRGB">
<feFlood flood-opacity="0" result="BackgroundImageFix"/>
<feGaussianBlur in="BackgroundImage" stdDeviation="5"/>
<feComposite in2="SourceAlpha" operator="in" result="effect1_backgroundBlur_652_4591"/>
<feBlend mode="normal" in="SourceGraphic" in2="effect1_backgroundBlur_652_4591" result="shape"/>
</filter>
<filter id="filter32_f_652_4591" x="66" y="244" width="325" height="283" filterUnits="userSpaceOnUse" color-interpolation-filters="sRGB">
<feFlood flood-opacity="0" result="BackgroundImageFix"/>
<feBlend mode="normal" in="SourceGraphic" in2="BackgroundImageFix" result="shape"/>
<feGaussianBlur stdDeviation="31" result="effect1_foregroundBlur_652_4591"/>
</filter>
<linearGradient id="paint0_linear_652_4591" x1="285.196" y1="106.457" x2="277.591" y2="141.755" gradientUnits="userSpaceOnUse">
<stop stop-color="#FF7A00"/>
<stop offset="1" stop-color="#4E10FF"/>
</linearGradient>
<linearGradient id="paint1_linear_652_4591" x1="311.826" y1="135.261" x2="293.851" y2="218.694" gradientUnits="userSpaceOnUse">
<stop stop-color="#FF7A00"/>
<stop offset="1" stop-color="#4E10FF"/>
</linearGradient>
<linearGradient id="paint2_linear_652_4591" x1="292.978" y1="159.283" x2="286.756" y2="188.163" gradientUnits="userSpaceOnUse">
<stop stop-color="#FF7A00"/>
<stop offset="1" stop-color="#4E10FF"/>
</linearGradient>
<linearGradient id="paint3_linear_652_4591" x1="288.543" y1="164.935" x2="285.087" y2="180.98" gradientUnits="userSpaceOnUse">
<stop stop-color="#FF7A00"/>
<stop offset="1" stop-color="#4E10FF"/>
</linearGradient>
<linearGradient id="paint4_linear_652_4591" x1="90.8261" y1="687.261" x2="72.8506" y2="770.694" gradientUnits="userSpaceOnUse">
<stop stop-color="#FF7A00"/>
<stop offset="1" stop-color="#96FF10"/>
</linearGradient>
<linearGradient id="paint5_linear_652_4591" x1="74.1957" y1="708.457" x2="66.5906" y2="743.755" gradientUnits="userSpaceOnUse">
<stop stop-color="#FF7A00"/>
<stop offset="1" stop-color="#96FF10"/>
</linearGradient>
<linearGradient id="paint6_linear_652_4591" x1="71.9783" y1="711.283" x2="65.756" y2="740.163" gradientUnits="userSpaceOnUse">
<stop stop-color="#FF7A00"/>
<stop offset="1" stop-color="#96FF10"/>
</linearGradient>
<linearGradient id="paint7_linear_652_4591" x1="121.522" y1="406.217" x2="111.843" y2="451.143" gradientUnits="userSpaceOnUse">
<stop stop-color="#10FF8C"/>
<stop offset="0.872792" stop-color="#960DB8"/>
</linearGradient>
<linearGradient id="paint8_linear_652_4591" x1="113.761" y1="416.109" x2="108.921" y2="438.571" gradientUnits="userSpaceOnUse">
<stop stop-color="#10FF8C"/>
<stop offset="0.872792" stop-color="#960DB8"/>
</linearGradient>
<linearGradient id="paint9_linear_652_4591" x1="110.435" y1="420.348" x2="107.669" y2="433.184" gradientUnits="userSpaceOnUse">
<stop stop-color="#10FF8C"/>
<stop offset="0.872792" stop-color="#960DB8"/>
</linearGradient>
<linearGradient id="paint10_linear_652_4591" x1="415.935" y1="250.848" x2="397.268" y2="337.49" gradientUnits="userSpaceOnUse">
<stop stop-color="#B8A70D"/>
<stop offset="1" stop-color="#10B7FF"/>
</linearGradient>
<linearGradient id="paint11_linear_652_4591" x1="400.467" y1="270.424" x2="391.134" y2="313.745" gradientUnits="userSpaceOnUse">
<stop stop-color="#B8A70D"/>
<stop offset="1" stop-color="#10B7FF"/>
</linearGradient>
<linearGradient id="paint12_linear_652_4591" x1="393.761" y1="279.109" x2="388.921" y2="301.571" gradientUnits="userSpaceOnUse">
<stop stop-color="#B8A70D"/>
<stop offset="1" stop-color="#10B7FF"/>
</linearGradient>
<linearGradient id="paint13_linear_652_4591" x1="75.9348" y1="460.848" x2="57.2679" y2="547.49" gradientUnits="userSpaceOnUse">
<stop stop-color="#B8A70D"/>
<stop offset="1" stop-color="#10B7FF"/>
</linearGradient>
<linearGradient id="paint14_linear_652_4591" x1="60.4674" y1="480.424" x2="51.134" y2="523.745" gradientUnits="userSpaceOnUse">
<stop stop-color="#B8A70D"/>
<stop offset="1" stop-color="#10B7FF"/>
</linearGradient>
<linearGradient id="paint15_linear_652_4591" x1="53.7609" y1="489.109" x2="48.9213" y2="511.571" gradientUnits="userSpaceOnUse">
<stop stop-color="#B8A70D"/>
<stop offset="1" stop-color="#10B7FF"/>
</linearGradient>
<linearGradient id="paint16_linear_652_4591" x1="67.5435" y1="716.935" x2="64.0867" y2="732.98" gradientUnits="userSpaceOnUse">
<stop stop-color="#FF7A00"/>
<stop offset="1" stop-color="#96FF10"/>
</linearGradient>
<linearGradient id="paint17_linear_652_4591" x1="301.065" y1="556.152" x2="287.929" y2="617.123" gradientUnits="userSpaceOnUse">
<stop stop-color="#10FF8C"/>
<stop offset="0.872792" stop-color="#960DB8"/>
</linearGradient>
<linearGradient id="paint18_linear_652_4591" x1="290.033" y1="570.076" x2="283.465" y2="600.561" gradientUnits="userSpaceOnUse">
<stop stop-color="#10FF8C"/>
<stop offset="0.872792" stop-color="#960DB8"/>
</linearGradient>
<linearGradient id="paint19_linear_652_4591" x1="285.543" y1="575.935" x2="282.087" y2="591.98" gradientUnits="userSpaceOnUse">
<stop stop-color="#10FF8C"/>
<stop offset="0.872792" stop-color="#960DB8"/>
</linearGradient>
</defs>
</svg>
