<svg width="96" height="61" viewBox="0 0 96 61" fill="none" xmlns="http://www.w3.org/2000/svg">
<mask id="path-1-inside-1_724_1434" fill="white">
<path fill-rule="evenodd" clip-rule="evenodd" d="M80.341 59.9766C80.341 59.9424 80.3668 59.9135 80.4007 59.9093C88.9494 58.8398 95.5634 51.546 95.5634 42.7075C95.5634 35.3502 90.9804 29.0633 84.5135 26.5459C83.3799 26.1046 82.5075 25.136 82.2625 23.9445C79.4526 10.2774 67.3545 0 52.8559 0C42.599 0 33.5434 5.14363 28.1279 12.9922C27.4134 14.0276 26.1784 14.5851 24.9256 14.4714C24.2367 14.4088 23.5389 14.3768 22.8337 14.3768C10.223 14.3768 0 24.5998 0 37.2106C0 49.8213 10.223 60.0443 22.8337 60.0443C23.4107 60.0443 23.9827 60.0229 24.5489 59.9809H47.3272C47.3447 59.9809 47.3589 59.9951 47.3589 60.0126V60.0126C47.3589 60.0301 47.3731 60.0443 47.3906 60.0443H80.2733C80.3107 60.0443 80.341 60.014 80.341 59.9766V59.9766Z"/>
</mask>
<path fill-rule="evenodd" clip-rule="evenodd" d="M80.341 59.9766C80.341 59.9424 80.3668 59.9135 80.4007 59.9093C88.9494 58.8398 95.5634 51.546 95.5634 42.7075C95.5634 35.3502 90.9804 29.0633 84.5135 26.5459C83.3799 26.1046 82.5075 25.136 82.2625 23.9445C79.4526 10.2774 67.3545 0 52.8559 0C42.599 0 33.5434 5.14363 28.1279 12.9922C27.4134 14.0276 26.1784 14.5851 24.9256 14.4714C24.2367 14.4088 23.5389 14.3768 22.8337 14.3768C10.223 14.3768 0 24.5998 0 37.2106C0 49.8213 10.223 60.0443 22.8337 60.0443C23.4107 60.0443 23.9827 60.0229 24.5489 59.9809H47.3272C47.3447 59.9809 47.3589 59.9951 47.3589 60.0126V60.0126C47.3589 60.0301 47.3731 60.0443 47.3906 60.0443H80.2733C80.3107 60.0443 80.341 60.014 80.341 59.9766V59.9766Z" fill="url(#paint0_linear_724_1434)" fill-opacity="0.7"/>
<path d="M24.5489 59.9809V58.9809H24.5118L24.4748 58.9836L24.5489 59.9809ZM28.1279 12.9922L27.3048 12.4243L28.1279 12.9922ZM84.5135 26.5459L84.1508 27.4777L84.5135 26.5459ZM82.2625 23.9445L83.242 23.7431L82.2625 23.9445ZM80.4007 59.9093L80.5249 60.9015L80.4007 59.9093ZM80.5249 60.9015C89.5677 59.7702 96.5634 52.0566 96.5634 42.7075H94.5634C94.5634 51.0355 88.3311 57.9093 80.2766 58.917L80.5249 60.9015ZM96.5634 42.7075C96.5634 34.9242 91.7145 28.2759 84.8763 25.614L84.1508 27.4777C90.2464 29.8506 94.5634 35.7761 94.5634 42.7075H96.5634ZM83.242 23.7431C80.3385 9.62042 67.8386 -1 52.8559 -1V1C66.8704 1 78.5668 10.9344 81.283 24.1458L83.242 23.7431ZM52.8559 -1C42.2564 -1 32.899 4.31675 27.3048 12.4243L28.9509 13.5601C34.1878 5.97052 42.9415 1 52.8559 1V-1ZM25.016 13.4755C24.2971 13.4102 23.5692 13.3768 22.8337 13.3768V15.3768C23.5087 15.3768 24.1763 15.4074 24.8351 15.4673L25.016 13.4755ZM22.8337 13.3768C9.67073 13.3768 -1 24.0476 -1 37.2106H1C1 25.1521 10.7753 15.3768 22.8337 15.3768V13.3768ZM-1 37.2106C-1 50.3736 9.67073 61.0443 22.8337 61.0443V59.0443C10.7753 59.0443 1 49.269 1 37.2106H-1ZM22.8337 61.0443C23.4354 61.0443 24.0321 61.022 24.6229 60.9781L24.4748 58.9836C23.9332 59.0238 23.386 59.0443 22.8337 59.0443V61.0443ZM24.5489 60.9809H47.3272V58.9809H24.5489V60.9809ZM80.2733 59.0443H47.3906V61.0443H80.2733V59.0443ZM47.3272 60.9809C46.7924 60.9809 46.3589 60.5474 46.3589 60.0126H48.3589C48.3589 59.4428 47.897 58.9809 47.3272 58.9809V60.9809ZM27.3048 12.4243C26.8021 13.1528 25.9215 13.5577 25.016 13.4755L24.8351 15.4673C26.4353 15.6126 28.0247 14.9024 28.9509 13.5601L27.3048 12.4243ZM84.8763 25.614C84.0336 25.2859 83.4134 24.5765 83.242 23.7431L81.283 24.1458C81.6016 25.6955 82.7262 26.9232 84.1508 27.4777L84.8763 25.614ZM46.3589 60.0126C46.3589 60.5824 46.8209 61.0443 47.3906 61.0443V59.0443C47.9254 59.0443 48.3589 59.4778 48.3589 60.0126H46.3589ZM80.2733 61.0443C80.863 61.0443 81.341 60.5663 81.341 59.9766H79.341C79.341 59.4617 79.7584 59.0443 80.2733 59.0443V61.0443ZM80.2766 58.917C79.7486 58.9831 79.341 59.4317 79.341 59.9766H81.341C81.341 60.453 80.985 60.844 80.5249 60.9015L80.2766 58.917Z" fill="url(#paint1_linear_724_1434)" mask="url(#path-1-inside-1_724_1434)"/>
<defs>
<linearGradient id="paint0_linear_724_1434" x1="86.074" y1="24.0784" x2="35.8535" y2="62.3211" gradientUnits="userSpaceOnUse">
<stop stop-color="white" stop-opacity="0"/>
<stop offset="1" stop-color="white" stop-opacity="0.47"/>
</linearGradient>
<linearGradient id="paint1_linear_724_1434" x1="82.7355" y1="15.8599" x2="13.4705" y2="47.1479" gradientUnits="userSpaceOnUse">
<stop stop-color="white" stop-opacity="0.3"/>
<stop offset="1" stop-color="white" stop-opacity="0"/>
</linearGradient>
</defs>
</svg>
