<svg width="157" height="76" viewBox="0 0 157 76" fill="none" xmlns="http://www.w3.org/2000/svg">
<mask id="path-1-inside-1_724_1448" fill="white">
<path fill-rule="evenodd" clip-rule="evenodd" d="M35 0C25.6112 0 18 7.61116 18 17C18 18.7401 18.2614 20.4192 18.7472 22H17C7.61116 22 0 29.6112 0 39C0 48.3888 7.61116 56 17 56H34.2639C34.0905 56.9738 34 57.9763 34 59C34 68.3888 41.6112 76 51 76H140C149.389 76 157 68.3888 157 59C157 49.6112 149.389 42 140 42H122.736C122.91 41.0262 123 40.0237 123 39C123 37.2599 122.739 35.5808 122.253 34H124C133.389 34 141 26.3888 141 17C141 7.61116 133.389 0 124 0H35Z"/>
</mask>
<path fill-rule="evenodd" clip-rule="evenodd" d="M35 0C25.6112 0 18 7.61116 18 17C18 18.7401 18.2614 20.4192 18.7472 22H17C7.61116 22 0 29.6112 0 39C0 48.3888 7.61116 56 17 56H34.2639C34.0905 56.9738 34 57.9763 34 59C34 68.3888 41.6112 76 51 76H140C149.389 76 157 68.3888 157 59C157 49.6112 149.389 42 140 42H122.736C122.91 41.0262 123 40.0237 123 39C123 37.2599 122.739 35.5808 122.253 34H124C133.389 34 141 26.3888 141 17C141 7.61116 133.389 0 124 0H35Z" fill="url(#paint0_linear_724_1448)" fill-opacity="0.2"/>
<path d="M18.7472 22V23H20.1006L19.7031 21.7063L18.7472 22ZM34.2639 56L35.2484 56.1753L35.4576 55H34.2639V56ZM122.736 42L121.752 41.8247L121.542 43H122.736V42ZM122.253 34V33H120.899L121.297 34.2937L122.253 34ZM19 17C19 8.16344 26.1634 1 35 1V-1C25.0589 -1 17 7.05887 17 17H19ZM19.7031 21.7063C19.2462 20.2195 19 18.6394 19 17H17C17 18.8408 17.2766 20.6188 17.7913 22.2937L19.7031 21.7063ZM18.7472 21H17V23H18.7472V21ZM17 21C7.05888 21 -1 29.0589 -1 39H1C1 30.1634 8.16344 23 17 23V21ZM-1 39C-1 48.9411 7.05887 57 17 57V55C8.16344 55 1 47.8366 1 39H-1ZM17 57H34.2639V55H17V57ZM33.2794 55.8247C33.0957 56.8561 33 57.9173 33 59H35C35 58.0354 35.0852 57.0915 35.2484 56.1753L33.2794 55.8247ZM33 59C33 68.9411 41.0589 77 51 77V75C42.1634 75 35 67.8366 35 59H33ZM51 77H140V75H51V77ZM140 77C149.941 77 158 68.9411 158 59H156C156 67.8366 148.837 75 140 75V77ZM158 59C158 49.0589 149.941 41 140 41V43C148.837 43 156 50.1634 156 59H158ZM140 41H122.736V43H140V41ZM123.721 42.1753C123.904 41.1439 124 40.0827 124 39H122C122 39.9646 121.915 40.9085 121.752 41.8247L123.721 42.1753ZM124 39C124 37.1592 123.723 35.3812 123.209 33.7063L121.297 34.2937C121.754 35.7805 122 37.3606 122 39H124ZM124 33H122.253V35H124V33ZM140 17C140 25.8366 132.837 33 124 33V35C133.941 35 142 26.9411 142 17H140ZM124 1C132.837 1 140 8.16344 140 17H142C142 7.05887 133.941 -1 124 -1V1ZM35 1H124V-1H35V1Z" fill="url(#paint1_linear_724_1448)" fill-opacity="0.1" mask="url(#path-1-inside-1_724_1448)"/>
<defs>
<linearGradient id="paint0_linear_724_1448" x1="100.142" y1="28.4648" x2="83.7642" y2="75.4593" gradientUnits="userSpaceOnUse">
<stop stop-color="white" stop-opacity="0"/>
<stop offset="1" stop-color="white"/>
</linearGradient>
<linearGradient id="paint1_linear_724_1448" x1="116.469" y1="25.5915" x2="54.0633" y2="101.03" gradientUnits="userSpaceOnUse">
<stop stop-color="white" stop-opacity="0"/>
<stop offset="1" stop-color="white" stop-opacity="0.5"/>
</linearGradient>
</defs>
</svg>
