<svg width="262" height="140" viewBox="0 0 262 140" fill="none" xmlns="http://www.w3.org/2000/svg">
<g filter="url(#filter0_b_727_1579)">
<mask id="path-1-inside-1_727_1579" fill="white">
<path fill-rule="evenodd" clip-rule="evenodd" d="M236.001 73.7978C234.479 73.4606 233.354 72.1175 233.371 70.5589C233.374 70.2903 233.376 70.0213 233.376 69.752C233.376 31.229 202.147 0 163.624 0C138.752 0 116.92 13.018 104.571 32.6121C103.936 33.6192 102.787 34.1841 101.601 34.0847C100.127 33.9612 98.6368 33.8982 97.1315 33.8982C81.1145 33.8982 66.7632 41.0296 57.0795 52.2905C56.2893 53.2095 55.0459 53.606 53.8665 53.3268C50.619 52.5579 47.2315 52.151 43.749 52.151C19.5871 52.151 0 71.7381 0 95.9C0 118.007 16.3964 136.284 37.6914 139.233C37.7588 139.242 37.8095 139.3 37.8095 139.368C37.8095 139.443 37.8704 139.504 37.9455 139.504H40.1606C41.3441 139.6 42.5408 139.649 43.749 139.649C44.9572 139.649 46.154 139.6 47.3374 139.504H97.0909C97.1044 139.504 97.118 139.504 97.1315 139.504C97.1451 139.504 97.1587 139.504 97.1722 139.504H97.4598C97.5122 139.504 97.5548 139.546 97.5548 139.599C97.5548 139.651 97.5973 139.694 97.6497 139.694H160.653C160.705 139.694 160.748 139.651 160.748 139.599C160.748 139.546 160.79 139.504 160.843 139.504H163.577C163.593 139.504 163.608 139.504 163.624 139.504C163.64 139.504 163.655 139.504 163.671 139.504H226.802C226.832 139.504 226.857 139.479 226.857 139.449C226.857 139.417 226.884 139.392 226.915 139.393C227.534 139.428 228.156 139.445 228.783 139.445C247.128 139.445 262 124.573 262 106.228C262 90.3618 250.876 77.0935 236.001 73.7978Z"/>
</mask>
<path fill-rule="evenodd" clip-rule="evenodd" d="M236.001 73.7978C234.479 73.4606 233.354 72.1175 233.371 70.5589C233.374 70.2903 233.376 70.0213 233.376 69.752C233.376 31.229 202.147 0 163.624 0C138.752 0 116.92 13.018 104.571 32.6121C103.936 33.6192 102.787 34.1841 101.601 34.0847C100.127 33.9612 98.6368 33.8982 97.1315 33.8982C81.1145 33.8982 66.7632 41.0296 57.0795 52.2905C56.2893 53.2095 55.0459 53.606 53.8665 53.3268C50.619 52.5579 47.2315 52.151 43.749 52.151C19.5871 52.151 0 71.7381 0 95.9C0 118.007 16.3964 136.284 37.6914 139.233C37.7588 139.242 37.8095 139.3 37.8095 139.368C37.8095 139.443 37.8704 139.504 37.9455 139.504H40.1606C41.3441 139.6 42.5408 139.649 43.749 139.649C44.9572 139.649 46.154 139.6 47.3374 139.504H97.0909C97.1044 139.504 97.118 139.504 97.1315 139.504C97.1451 139.504 97.1587 139.504 97.1722 139.504H97.4598C97.5122 139.504 97.5548 139.546 97.5548 139.599C97.5548 139.651 97.5973 139.694 97.6497 139.694H160.653C160.705 139.694 160.748 139.651 160.748 139.599C160.748 139.546 160.79 139.504 160.843 139.504H163.577C163.593 139.504 163.608 139.504 163.624 139.504C163.64 139.504 163.655 139.504 163.671 139.504H226.802C226.832 139.504 226.857 139.479 226.857 139.449C226.857 139.417 226.884 139.392 226.915 139.393C227.534 139.428 228.156 139.445 228.783 139.445C247.128 139.445 262 124.573 262 106.228C262 90.3618 250.876 77.0935 236.001 73.7978Z" fill="url(#paint0_linear_727_1579)" fill-opacity="0.5"/>
<path d="M40.1606 139.504L40.2415 138.507L40.2011 138.504H40.1606V139.504ZM47.3374 139.504V138.504H47.2969L47.2565 138.507L47.3374 139.504ZM226.915 139.393L226.86 140.392L226.915 139.393ZM57.0795 52.2905L57.8377 52.9426L57.0795 52.2905ZM37.6914 139.233L37.5542 140.224L37.6914 139.233ZM104.571 32.6121L105.417 33.1453L104.571 32.6121ZM101.601 34.0847L101.517 35.0812L101.601 34.0847ZM233.371 70.5589L232.371 70.5475L233.371 70.5589ZM236.001 73.7978L235.784 74.7741L236.001 73.7978ZM232.376 69.752C232.376 70.0175 232.374 70.2827 232.371 70.5475L234.371 70.5702C234.374 70.2978 234.376 70.0251 234.376 69.752H232.376ZM163.624 1C201.595 1 232.376 31.7813 232.376 69.752H234.376C234.376 30.6768 202.699 -1 163.624 -1V1ZM105.417 33.1453C117.591 13.8295 139.11 1 163.624 1V-1C138.394 -1 116.25 12.2065 103.725 32.0789L105.417 33.1453ZM97.1315 34.8982C98.6089 34.8982 100.072 34.96 101.517 35.0812L101.684 33.0881C100.183 32.9623 98.6647 32.8982 97.1315 32.8982V34.8982ZM57.8377 52.9426C67.3395 41.8932 81.4181 34.8982 97.1315 34.8982V32.8982C80.811 32.8982 66.1869 40.1661 56.3213 51.6385L57.8377 52.9426ZM43.749 53.151C47.1534 53.151 50.4636 53.5488 53.6361 54.2999L54.0969 52.3537C50.7745 51.5671 47.3097 51.151 43.749 51.151V53.151ZM1 95.9C1 72.2904 20.1394 53.151 43.749 53.151V51.151C19.0348 51.151 -1 71.1858 -1 95.9H1ZM37.8286 138.243C17.0213 135.361 1 117.5 1 95.9H-1C-1 118.513 15.7715 137.206 37.5542 140.224L37.8286 138.243ZM40.1606 138.504H37.9455V140.504H40.1606V138.504ZM43.749 138.649C42.5678 138.649 41.3981 138.601 40.2415 138.507L40.0797 140.501C41.29 140.599 42.5138 140.649 43.749 140.649V138.649ZM47.2565 138.507C46.0999 138.601 44.9302 138.649 43.749 138.649V140.649C44.9842 140.649 46.208 140.599 47.4183 140.501L47.2565 138.507ZM97.0909 138.504H47.3374V140.504H97.0909V138.504ZM97.1315 138.504C97.1251 138.504 97.1186 138.504 97.1118 138.504C97.105 138.504 97.098 138.504 97.0909 138.504V140.504C97.0973 140.504 97.1038 140.504 97.1106 140.504C97.1174 140.504 97.1244 140.504 97.1315 140.504V138.504ZM97.1722 138.504C97.1651 138.504 97.1581 138.504 97.1513 138.504C97.1445 138.504 97.138 138.504 97.1315 138.504V140.504C97.1386 140.504 97.1457 140.504 97.1524 140.504C97.1593 140.504 97.1658 140.504 97.1722 140.504V138.504ZM97.4598 138.504H97.1722V140.504H97.4598V138.504ZM160.653 138.694H97.6497V140.694H160.653V138.694ZM163.577 138.504H160.843V140.504H163.577V138.504ZM163.624 138.504C163.616 138.504 163.609 138.504 163.601 138.504C163.593 138.504 163.585 138.504 163.577 138.504V140.504C163.585 140.504 163.592 140.504 163.6 140.504C163.608 140.504 163.616 140.504 163.624 140.504V138.504ZM163.671 138.504C163.663 138.504 163.655 138.504 163.647 138.504C163.639 138.504 163.631 138.504 163.624 138.504V140.504C163.632 140.504 163.64 140.504 163.648 140.504C163.656 140.504 163.663 140.504 163.671 140.504V138.504ZM226.802 138.504H163.671V140.504H226.802V138.504ZM228.783 138.445C228.175 138.445 227.571 138.428 226.971 138.395L226.86 140.392C227.497 140.427 228.138 140.445 228.783 140.445V138.445ZM261 106.228C261 124.021 246.576 138.445 228.783 138.445V140.445C247.681 140.445 263 125.126 263 106.228H261ZM235.784 74.7741C250.211 77.9706 261 90.8407 261 106.228H263C263 89.8829 251.54 76.2165 236.217 72.8215L235.784 74.7741ZM227.857 139.449C227.857 139.992 227.4 140.422 226.86 140.392L226.971 138.395C226.367 138.362 225.857 138.842 225.857 139.449H227.857ZM160.653 140.694C161.258 140.694 161.748 140.204 161.748 139.599H159.748C159.748 139.099 160.153 138.694 160.653 138.694V140.694ZM96.5548 139.599C96.5548 140.204 97.045 140.694 97.6497 140.694V138.694C98.1496 138.694 98.5548 139.099 98.5548 139.599H96.5548ZM36.8095 139.368C36.8095 139.995 37.3181 140.504 37.9455 140.504V138.504C38.4227 138.504 38.8095 138.891 38.8095 139.368H36.8095ZM97.4598 140.504C96.96 140.504 96.5548 140.099 96.5548 139.599H98.5548C98.5548 138.994 98.0645 138.504 97.4598 138.504V140.504ZM56.3213 51.6385C55.7777 52.2707 54.9172 52.5479 54.0969 52.3537L53.6361 54.2999C55.1747 54.6642 56.8008 54.1484 57.8377 52.9426L56.3213 51.6385ZM161.748 139.599C161.748 140.099 161.343 140.504 160.843 140.504V138.504C160.238 138.504 159.748 138.994 159.748 139.599H161.748ZM37.5542 140.224C37.1328 140.165 36.8095 139.805 36.8095 139.368H38.8095C38.8095 138.795 38.3849 138.32 37.8286 138.243L37.5542 140.224ZM103.725 32.0789C103.292 32.7661 102.503 33.1568 101.684 33.0881L101.517 35.0812C103.071 35.2114 104.581 34.4724 105.417 33.1453L103.725 32.0789ZM226.802 140.504C227.385 140.504 227.857 140.032 227.857 139.449H225.857C225.857 138.927 226.28 138.504 226.802 138.504V140.504ZM232.371 70.5475C232.348 72.6061 233.827 74.3405 235.784 74.7741L236.217 72.8215C235.131 72.5807 234.359 71.6289 234.371 70.5702L232.371 70.5475Z" fill="url(#paint1_linear_727_1579)" fill-opacity="0.2" mask="url(#path-1-inside-1_727_1579)"/>
</g>
<defs>
<filter id="filter0_b_727_1579" x="-10" y="-10" width="282" height="159.694" filterUnits="userSpaceOnUse" color-interpolation-filters="sRGB">
<feFlood flood-opacity="0" result="BackgroundImageFix"/>
<feGaussianBlur in="BackgroundImage" stdDeviation="5"/>
<feComposite in2="SourceAlpha" operator="in" result="effect1_backgroundBlur_727_1579"/>
<feBlend mode="normal" in="SourceGraphic" in2="effect1_backgroundBlur_727_1579" result="shape"/>
</filter>
<linearGradient id="paint0_linear_727_1579" x1="257.431" y1="44.9208" x2="119.11" y2="168.364" gradientUnits="userSpaceOnUse">
<stop stop-color="white" stop-opacity="0"/>
<stop offset="1" stop-color="white" stop-opacity="0.24"/>
</linearGradient>
<linearGradient id="paint1_linear_727_1579" x1="226.83" y1="36.8984" x2="48.6669" y2="131.737" gradientUnits="userSpaceOnUse">
<stop stop-color="white" stop-opacity="0.3"/>
<stop offset="1" stop-color="white" stop-opacity="0"/>
</linearGradient>
</defs>
</svg>
