<svg width="390" height="519" viewBox="0 0 390 519" fill="none" xmlns="http://www.w3.org/2000/svg">
<mask id="path-1-inside-1_724_1440" fill="white">
<path fill-rule="evenodd" clip-rule="evenodd" d="M22.0478 140.104C24.0502 141.469 23.107 145 20.6833 145V145C18.4871 145 17.407 142.042 18.9222 140.452V140.452C19.7416 139.592 21.0663 139.435 22.0478 140.104V140.104ZM-13 156.251C-13 154.637 -14.2818 153.323 -15.8872 153.155C-36.7499 150.968 -53 133.615 -53 112.532C-53 89.9679 -34.3875 71.6763 -11.4277 71.6763V71.6763C-11.3733 71.6764 -11.3282 71.6337 -11.3247 71.5794C-8.69298 31.6071 24.5629 0 65.2011 0C93.7193 0 118.602 15.5654 131.817 38.664C132.418 39.7142 133.57 40.3269 134.778 40.2512C135.967 40.1766 137.167 40.1387 138.376 40.1387C169.648 40.1387 195 65.4903 195 96.763C195 113.357 187.862 128.284 176.489 138.641C174.253 140.677 175.607 145 178.631 145H261.73C262.4 145 263.049 144.773 263.584 144.37C273.059 137.232 284.847 133 297.624 133C299.093 133 300.549 133.056 301.99 133.166C303.201 133.258 304.363 132.656 304.986 131.613C314.872 115.074 332.955 104 353.624 104C384.897 104 410.249 129.352 410.249 160.624C410.249 177.545 402.827 192.733 391.061 203.109C390.395 203.695 390 204.533 390 205.42V536C390 537.657 388.657 539 387 539H-10C-11.6569 539 -13 537.657 -13 536V156.251Z"/>
</mask>
<path fill-rule="evenodd" clip-rule="evenodd" d="M22.0478 140.104C24.0502 141.469 23.107 145 20.6833 145V145C18.4871 145 17.407 142.042 18.9222 140.452V140.452C19.7416 139.592 21.0663 139.435 22.0478 140.104V140.104ZM-13 156.251C-13 154.637 -14.2818 153.323 -15.8872 153.155C-36.7499 150.968 -53 133.615 -53 112.532C-53 89.9679 -34.3875 71.6763 -11.4277 71.6763V71.6763C-11.3733 71.6764 -11.3282 71.6337 -11.3247 71.5794C-8.69298 31.6071 24.5629 0 65.2011 0C93.7193 0 118.602 15.5654 131.817 38.664C132.418 39.7142 133.57 40.3269 134.778 40.2512C135.967 40.1766 137.167 40.1387 138.376 40.1387C169.648 40.1387 195 65.4903 195 96.763C195 113.357 187.862 128.284 176.489 138.641C174.253 140.677 175.607 145 178.631 145H261.73C262.4 145 263.049 144.773 263.584 144.37C273.059 137.232 284.847 133 297.624 133C299.093 133 300.549 133.056 301.99 133.166C303.201 133.258 304.363 132.656 304.986 131.613C314.872 115.074 332.955 104 353.624 104C384.897 104 410.249 129.352 410.249 160.624C410.249 177.545 402.827 192.733 391.061 203.109C390.395 203.695 390 204.533 390 205.42V536C390 537.657 388.657 539 387 539H-10C-11.6569 539 -13 537.657 -13 536V156.251Z" fill="url(#paint0_linear_724_1440)" fill-opacity="0.2"/>
<path d="M131.817 38.664L130.949 39.1606L131.817 38.664ZM134.778 40.2512L134.84 41.2492L134.778 40.2512ZM301.99 133.166L301.914 134.163L301.99 133.166ZM304.986 131.613L305.845 132.127L304.986 131.613ZM-15.8872 153.155L-15.783 152.16L-15.8872 153.155ZM391.061 203.109L390.399 202.359L391.061 203.109ZM-11.3247 71.5794L-10.3268 71.6451L-11.3247 71.5794ZM263.584 144.37L264.185 145.169L263.584 144.37ZM176.489 138.641L177.162 139.38L176.489 138.641ZM-15.9915 154.15C-37.3439 151.912 -54 134.146 -54 112.532H-52C-52 133.084 -36.1559 150.025 -15.783 152.16L-15.9915 154.15ZM-54 112.532C-54 89.3993 -34.9233 70.6763 -11.4277 70.6763V72.6763C-33.8516 72.6763 -52 90.5365 -52 112.532H-54ZM-12.3225 71.5137C-9.65644 31.0193 24.0327 -1 65.2011 -1V1C25.0932 1 -7.72952 32.195 -10.3268 71.6451L-12.3225 71.5137ZM65.2011 -1C94.0925 -1 119.299 14.7703 132.685 38.1674L130.949 39.1606C117.905 16.3606 93.3462 1 65.2011 1V-1ZM134.715 39.2532C135.926 39.1772 137.146 39.1387 138.376 39.1387V41.1387C137.188 41.1387 136.009 41.1759 134.84 41.2492L134.715 39.2532ZM138.376 39.1387C170.201 39.1387 196 64.938 196 96.763H194C194 66.0426 169.096 41.1387 138.376 41.1387V39.1387ZM196 96.763C196 113.65 188.735 128.842 177.162 139.38L175.816 137.901C186.989 127.726 194 113.064 194 96.763H196ZM261.73 146H178.631V144H261.73V146ZM262.982 143.572C272.624 136.307 284.623 132 297.624 132V134C285.072 134 273.493 138.157 264.185 145.169L262.982 143.572ZM297.624 132C299.119 132 300.6 132.057 302.066 132.169L301.914 134.163C300.499 134.055 299.068 134 297.624 134V132ZM304.128 131.1C314.187 114.272 332.589 103 353.624 103V105C333.321 105 315.558 115.877 305.845 132.127L304.128 131.1ZM353.624 103C385.449 103 411.249 128.799 411.249 160.624H409.249C409.249 129.904 384.345 105 353.624 105V103ZM411.249 160.624C411.249 177.844 403.694 193.301 391.722 203.859L390.399 202.359C401.959 192.164 409.249 177.246 409.249 160.624H411.249ZM389 536V205.42H391V536H389ZM-10 538H387V540H-10V538ZM-12 156.251V536H-14V156.251H-12ZM-10 540C-12.2091 540 -14 538.209 -14 536H-12C-12 537.105 -11.1046 538 -10 538V540ZM391 536C391 538.209 389.209 540 387 540V538C388.105 538 389 537.105 389 536H391ZM132.685 38.1674C133.094 38.8826 133.883 39.3053 134.715 39.2532L134.84 41.2492C133.257 41.3485 131.742 40.5458 130.949 39.1606L132.685 38.1674ZM302.066 132.169C302.899 132.232 303.699 131.817 304.128 131.1L305.845 132.127C305.027 133.494 303.503 134.284 301.914 134.163L302.066 132.169ZM-15.783 152.16C-13.7122 152.377 -12 154.082 -12 156.251H-14C-14 155.191 -14.8514 154.269 -15.9915 154.15L-15.783 152.16ZM18.1982 139.762C19.3461 138.558 21.2139 138.325 22.6111 139.278L21.4844 140.93C20.9187 140.544 20.1372 140.627 19.6461 141.142L18.1982 139.762ZM391.722 203.859C391.262 204.264 391 204.833 391 205.42H389C389 204.233 389.529 203.126 390.399 202.359L391.722 203.859ZM-11.4266 70.6763C-11.9059 70.6758 -12.2919 71.0484 -12.3225 71.5137L-10.3268 71.6451C-10.3646 72.219 -10.8408 72.6769 -11.4288 72.6763L-11.4266 70.6763ZM261.73 144C262.173 144 262.613 143.85 262.982 143.572L264.185 145.169C263.485 145.697 262.626 146 261.73 146V144ZM20.6833 146C19.0779 146 17.9427 144.91 17.4757 143.676C17.0111 142.449 17.127 140.887 18.1982 139.762L19.6461 141.142C19.2022 141.608 19.1005 142.319 19.3462 142.968C19.5895 143.611 20.0925 144 20.6833 144V146ZM177.162 139.38C176.4 140.074 176.194 141.22 176.538 142.273C176.881 143.319 177.668 144 178.631 144V146C176.571 146 175.169 144.519 174.637 142.895C174.108 141.277 174.342 139.243 175.816 137.901L177.162 139.38ZM20.6833 144C21.3282 144 21.8576 143.542 22.0608 142.8C22.2654 142.053 22.0503 141.316 21.4844 140.93L22.6111 139.278C24.0477 140.257 24.3622 141.968 23.9898 143.328C23.6162 144.692 22.4621 146 20.6833 146V144Z" fill="url(#paint1_linear_724_1440)" fill-opacity="0.5" mask="url(#path-1-inside-1_724_1440)"/>
<defs>
<linearGradient id="paint0_linear_724_1440" x1="-18.4877" y1="61.5937" x2="110.259" y2="160.455" gradientUnits="userSpaceOnUse">
<stop stop-color="white" stop-opacity="0"/>
<stop offset="1" stop-color="white" stop-opacity="0.47"/>
</linearGradient>
<linearGradient id="paint1_linear_724_1440" x1="-9.87614" y1="40.5705" x2="168.282" y2="121.721" gradientUnits="userSpaceOnUse">
<stop stop-color="white" stop-opacity="0.3"/>
<stop offset="1" stop-color="white" stop-opacity="0"/>
</linearGradient>
</defs>
</svg>
