<svg width="242" height="205" viewBox="0 0 242 205" fill="none" xmlns="http://www.w3.org/2000/svg">
<g opacity="0.4">
<mask id="path-1-inside-1_724_1428" fill="white">
<path fill-rule="evenodd" clip-rule="evenodd" d="M277.707 204.302C277.707 204.293 277.714 204.286 277.722 204.286C307.414 203.289 331.173 179.319 331.173 149.897C331.173 119.841 306.38 95.4757 275.797 95.4757V95.4757C275.725 95.4758 275.665 95.4189 275.66 95.3466C272.154 42.102 227.856 0 173.724 0C135.5 0 102.179 20.9931 84.662 52.0786C84.068 53.1327 82.9144 53.7468 81.7076 53.6606C79.9061 53.5319 78.0872 53.4664 76.2529 53.4664C34.5964 53.4664 0.827148 87.2357 0.827148 128.892C0.827148 170.549 34.5964 204.318 76.2529 204.318C76.4415 204.318 76.63 204.317 76.8183 204.316C76.8961 204.315 76.9596 204.378 76.9596 204.456V204.456C76.9596 204.533 77.0223 204.596 77.0996 204.596H169.373C169.45 204.596 169.512 204.534 169.512 204.457V204.457C169.512 204.38 169.574 204.318 169.651 204.318H173.724H275.797H277.691C277.699 204.318 277.707 204.311 277.707 204.302V204.302Z"/>
</mask>
<path fill-rule="evenodd" clip-rule="evenodd" d="M277.707 204.302C277.707 204.293 277.714 204.286 277.722 204.286C307.414 203.289 331.173 179.319 331.173 149.897C331.173 119.841 306.38 95.4757 275.797 95.4757V95.4757C275.725 95.4758 275.665 95.4189 275.66 95.3466C272.154 42.102 227.856 0 173.724 0C135.5 0 102.179 20.9931 84.662 52.0786C84.068 53.1327 82.9144 53.7468 81.7076 53.6606C79.9061 53.5319 78.0872 53.4664 76.2529 53.4664C34.5964 53.4664 0.827148 87.2357 0.827148 128.892C0.827148 170.549 34.5964 204.318 76.2529 204.318C76.4415 204.318 76.63 204.317 76.8183 204.316C76.8961 204.315 76.9596 204.378 76.9596 204.456V204.456C76.9596 204.533 77.0223 204.596 77.0996 204.596H169.373C169.45 204.596 169.512 204.534 169.512 204.457V204.457C169.512 204.38 169.574 204.318 169.651 204.318H173.724H275.797H277.691C277.699 204.318 277.707 204.311 277.707 204.302V204.302Z" fill="url(#paint0_linear_724_1428)" fill-opacity="0.2"/>
<path d="M76.8183 204.316L76.8109 203.316L76.8183 204.316ZM275.66 95.3466L274.662 95.4123L275.66 95.3466ZM84.662 52.0786L83.7908 51.5877L84.662 52.0786ZM81.7076 53.6606L81.7789 52.6631L81.7076 53.6606ZM277.722 204.286L277.756 205.285L277.722 204.286ZM277.756 205.285C307.969 204.271 332.173 179.876 332.173 149.897H330.173C330.173 178.763 306.859 202.307 277.689 203.286L277.756 205.285ZM332.173 149.897C332.173 119.272 306.916 94.4757 275.797 94.4757V96.4757C305.845 96.4757 330.173 120.409 330.173 149.897H332.173ZM276.658 95.2809C273.118 41.5141 228.386 -1 173.724 -1V1C227.326 1 271.191 42.6898 274.662 95.4123L276.658 95.2809ZM173.724 -1C135.125 -1 101.478 20.2005 83.7908 51.5877L85.5332 52.5695C102.88 21.7857 135.876 1 173.724 1V-1ZM81.7789 52.6631C79.9537 52.5327 78.111 52.4664 76.2529 52.4664V54.4664C78.0634 54.4664 79.8586 54.531 81.6363 54.6581L81.7789 52.6631ZM76.2529 52.4664C34.0441 52.4664 -0.172852 86.6834 -0.172852 128.892H1.82715C1.82715 87.7879 35.1487 54.4664 76.2529 54.4664V52.4664ZM-0.172852 128.892C-0.172852 171.101 34.0441 205.318 76.2529 205.318V203.318C35.1487 203.318 1.82715 169.996 1.82715 128.892H-0.172852ZM76.2529 205.318C76.444 205.318 76.6349 205.317 76.8256 205.316L76.8109 203.316C76.6251 203.317 76.4391 203.318 76.2529 203.318V205.318ZM77.0996 205.596H169.373V203.596H77.0996V205.596ZM173.724 203.318H169.651V205.318H173.724V203.318ZM275.797 203.318H173.724V205.318H275.797V203.318ZM277.691 203.318H275.797V205.318H277.691V203.318ZM277.691 205.318C278.252 205.318 278.707 204.863 278.707 204.302H276.707C276.707 203.758 277.147 203.318 277.691 203.318V205.318ZM170.512 204.457C170.512 204.932 170.127 205.318 169.651 205.318V203.318C169.022 203.318 168.512 203.828 168.512 204.457H170.512ZM76.8256 205.316C76.3495 205.319 75.9596 204.935 75.9596 204.456H77.9596C77.9596 203.822 77.4427 203.311 76.8109 203.316L76.8256 205.316ZM275.796 94.4757C276.257 94.4752 276.628 94.8336 276.658 95.2809L274.662 95.4123C274.701 96.0042 275.192 96.4764 275.798 96.4757L275.796 94.4757ZM75.9596 204.456C75.9596 205.086 76.47 205.596 77.0996 205.596V203.596C77.5746 203.596 77.9596 203.981 77.9596 204.456H75.9596ZM83.7908 51.5877C83.3883 52.3019 82.6035 52.7221 81.7789 52.6631L81.6363 54.6581C83.2253 54.7716 84.7477 53.9635 85.5332 52.5695L83.7908 51.5877ZM169.373 205.596C170.002 205.596 170.512 205.086 170.512 204.457H168.512C168.512 203.982 168.898 203.596 169.373 203.596V205.596ZM277.689 203.286C277.148 203.304 276.707 203.747 276.707 204.302H278.707C278.707 204.839 278.279 205.268 277.756 205.285L277.689 203.286Z" fill="url(#paint1_linear_724_1428)" fill-opacity="0.5" mask="url(#path-1-inside-1_724_1428)"/>
</g>
<defs>
<linearGradient id="paint0_linear_724_1428" x1="285.201" y1="82.0452" x2="113.705" y2="213.732" gradientUnits="userSpaceOnUse">
<stop stop-color="white" stop-opacity="0"/>
<stop offset="1" stop-color="white" stop-opacity="0.47"/>
</linearGradient>
<linearGradient id="paint1_linear_724_1428" x1="273.73" y1="54.0414" x2="36.416" y2="162.137" gradientUnits="userSpaceOnUse">
<stop stop-color="white" stop-opacity="0.3"/>
<stop offset="1" stop-color="white" stop-opacity="0"/>
</linearGradient>
</defs>
</svg>
