<svg width="154" height="97" viewBox="0 0 154 97" fill="none" xmlns="http://www.w3.org/2000/svg">
<g filter="url(#filter0_b_673_1600)">
<mask id="path-1-inside-1_673_1600" fill="white">
<path fill-rule="evenodd" clip-rule="evenodd" d="M24.9158 95.9621C24.9158 95.9581 24.9126 95.9548 24.9085 95.9546C11.0718 95.49 -0.000183105 84.3201 -0.000183105 70.6088C-0.000183105 56.6023 11.5535 45.2479 25.8056 45.2479C25.8395 45.2479 25.8676 45.2214 25.8698 45.1876C27.5035 20.375 48.1469 0.755127 73.3729 0.755127C90.8047 0.755127 106.048 10.124 114.343 24.101C114.96 25.1415 116.11 25.7515 117.319 25.7015C117.808 25.6813 118.301 25.6711 118.796 25.6711C138.208 25.6711 153.945 41.408 153.945 60.8204C153.945 80.2328 138.208 95.9697 118.796 95.9697C118.708 95.9697 118.62 95.9693 118.532 95.9687C118.496 95.9684 118.466 95.9977 118.466 96.034C118.466 96.0701 118.437 96.0993 118.401 96.0993H75.4005C75.3647 96.0993 75.3357 96.0703 75.3357 96.0345C75.3357 95.9987 75.3067 95.9697 75.2709 95.9697H24.9234C24.9192 95.9697 24.9158 95.9663 24.9158 95.9621Z"/>
</mask>
<path fill-rule="evenodd" clip-rule="evenodd" d="M24.9158 95.9621C24.9158 95.9581 24.9126 95.9548 24.9085 95.9546C11.0718 95.49 -0.000183105 84.3201 -0.000183105 70.6088C-0.000183105 56.6023 11.5535 45.2479 25.8056 45.2479C25.8395 45.2479 25.8676 45.2214 25.8698 45.1876C27.5035 20.375 48.1469 0.755127 73.3729 0.755127C90.8047 0.755127 106.048 10.124 114.343 24.101C114.96 25.1415 116.11 25.7515 117.319 25.7015C117.808 25.6813 118.301 25.6711 118.796 25.6711C138.208 25.6711 153.945 41.408 153.945 60.8204C153.945 80.2328 138.208 95.9697 118.796 95.9697C118.708 95.9697 118.62 95.9693 118.532 95.9687C118.496 95.9684 118.466 95.9977 118.466 96.034C118.466 96.0701 118.437 96.0993 118.401 96.0993H75.4005C75.3647 96.0993 75.3357 96.0703 75.3357 96.0345C75.3357 95.9987 75.3067 95.9697 75.2709 95.9697H24.9234C24.9192 95.9697 24.9158 95.9663 24.9158 95.9621Z" fill="url(#paint0_linear_673_1600)" fill-opacity="0.7"/>
<path d="M118.532 95.9687L118.539 94.9687L118.532 95.9687ZM25.8698 45.1876L26.8676 45.2533L25.8698 45.1876ZM114.343 24.101L113.483 24.6114L114.343 24.101ZM24.9085 95.9546L24.9421 94.9552L24.9085 95.9546ZM24.875 96.954C10.5168 96.472 -1.00018 84.8767 -1.00018 70.6088H0.999817C0.999817 83.7635 11.6267 94.5081 24.9421 94.9552L24.875 96.954ZM-1.00018 70.6088C-1.00018 56.0337 11.0177 44.2479 25.8056 44.2479V46.2479C12.0893 46.2479 0.999817 57.171 0.999817 70.6088H-1.00018ZM24.872 45.1219C26.54 19.7872 47.6167 -0.244873 73.3729 -0.244873V1.75513C48.6772 1.75513 28.4669 20.9629 26.8676 45.2533L24.872 45.1219ZM73.3729 -0.244873C91.1721 -0.244873 106.736 9.32267 115.203 23.5907L113.483 24.6114C105.361 10.9253 90.4373 1.75513 73.3729 1.75513V-0.244873ZM117.277 24.7024C117.781 24.6816 118.287 24.6711 118.796 24.6711V26.6711C118.315 26.6711 117.836 26.681 117.36 26.7007L117.277 24.7024ZM118.796 24.6711C138.76 24.6711 154.945 40.8557 154.945 60.8204H152.945C152.945 41.9602 137.656 26.6711 118.796 26.6711V24.6711ZM154.945 60.8204C154.945 80.7851 138.76 96.9697 118.796 96.9697V94.9697C137.656 94.9697 152.945 79.6805 152.945 60.8204H154.945ZM118.796 96.9697C118.705 96.9697 118.615 96.9693 118.525 96.9687L118.539 94.9687C118.625 94.9693 118.71 94.9697 118.796 94.9697V96.9697ZM118.401 97.0993H75.4005V95.0993H118.401V97.0993ZM24.9234 94.9697H75.2709V96.9697H24.9234V94.9697ZM24.9234 96.9697C24.3669 96.9697 23.9158 96.5186 23.9158 95.9621H25.9158C25.9158 95.414 25.4715 94.9697 24.9234 94.9697V96.9697ZM74.3357 96.0345C74.3357 96.551 74.7544 96.9697 75.2709 96.9697V94.9697C75.859 94.9697 76.3357 95.4464 76.3357 96.0345H74.3357ZM118.525 96.9687C119.042 96.9725 119.466 96.5541 119.466 96.034H117.466C117.466 95.4414 117.949 94.9644 118.539 94.9687L118.525 96.9687ZM25.8068 44.2479C25.307 44.2473 24.9039 44.636 24.872 45.1219L26.8676 45.2533C26.8312 45.8067 26.372 46.2485 25.8045 46.2479L25.8068 44.2479ZM119.466 96.034C119.466 96.6224 118.989 97.0993 118.401 97.0993V95.0993C117.885 95.0993 117.466 95.5178 117.466 96.034H119.466ZM115.203 23.5907C115.629 24.3082 116.428 24.7375 117.277 24.7024L117.36 26.7007C115.792 26.7655 114.292 25.9748 113.483 24.6114L115.203 23.5907ZM75.4005 97.0993C74.8124 97.0993 74.3357 96.6226 74.3357 96.0345H76.3357C76.3357 95.518 75.917 95.0993 75.4005 95.0993V97.0993ZM24.9421 94.9552C25.4783 94.9732 25.9158 95.4121 25.9158 95.9621H23.9158C23.9158 96.5041 24.3469 96.9363 24.875 96.954L24.9421 94.9552Z" fill="url(#paint1_linear_673_1600)" fill-opacity="0.3" mask="url(#path-1-inside-1_673_1600)"/>
</g>
<defs>
<filter id="filter0_b_673_1600" x="-10" y="-9.24487" width="173.945" height="115.344" filterUnits="userSpaceOnUse" color-interpolation-filters="sRGB">
<feFlood flood-opacity="0" result="BackgroundImageFix"/>
<feGaussianBlur in="BackgroundImage" stdDeviation="5"/>
<feComposite in2="SourceAlpha" operator="in" result="effect1_backgroundBlur_673_1600"/>
<feBlend mode="normal" in="SourceGraphic" in2="effect1_backgroundBlur_673_1600" result="shape"/>
</filter>
<linearGradient id="paint0_linear_673_1600" x1="21.4232" y1="38.9891" x2="101.342" y2="100.357" gradientUnits="userSpaceOnUse">
<stop stop-color="white" stop-opacity="0"/>
<stop offset="1" stop-color="white" stop-opacity="0.47"/>
</linearGradient>
<linearGradient id="paint1_linear_673_1600" x1="26.7688" y1="25.9391" x2="137.36" y2="76.3127" gradientUnits="userSpaceOnUse">
<stop stop-color="white" stop-opacity="0.3"/>
<stop offset="1" stop-color="white" stop-opacity="0"/>
</linearGradient>
</defs>
</svg>
