<svg width="141" height="167" viewBox="0 0 141 167" fill="none" xmlns="http://www.w3.org/2000/svg">
<g filter="url(#filter0_df_969_4823)">
<path fill-rule="evenodd" clip-rule="evenodd" d="M81.8997 102.331C81.918 102.336 81.9363 102.341 81.9546 102.346C81.9728 102.351 81.9911 102.356 82.0094 102.361L101.176 107.529C101.202 107.536 101.23 107.521 101.237 107.495C101.243 107.47 101.267 107.455 101.291 107.459C107.486 108.324 113.502 104.461 115.173 98.2654C116.252 94.2619 115.274 90.1885 112.885 87.1687C111.078 84.8857 109.613 82.1474 109.339 79.249C108.507 70.4534 102.338 62.6869 93.3059 60.2513C86.6423 58.4544 79.8668 59.9492 74.7071 63.7421C73.2349 64.8243 71.3046 65.1304 69.5404 64.6547C60.6995 62.2706 51.5999 67.5049 49.2159 76.3458C46.8318 85.1867 52.0661 94.2863 60.907 96.6704C61.3121 96.7796 61.7176 96.8729 62.1231 96.9505L78.0911 101.256C78.1034 101.26 78.1106 101.272 78.1073 101.285C78.104 101.297 78.1113 101.31 78.1236 101.313L81.8997 102.331Z" fill="url(#paint0_linear_969_4823)"/>
</g>
<g filter="url(#filter1_df_969_4823)">
<path fill-rule="evenodd" clip-rule="evenodd" d="M82.5224 102.346L82.4676 102.331L78.6914 101.313C78.6792 101.31 78.6719 101.297 78.6752 101.285C78.6785 101.272 78.6712 101.26 78.659 101.256L62.6916 96.9507C62.2859 96.873 61.88 96.7798 61.4746 96.6704C52.6337 94.2864 47.3994 85.1868 49.7835 76.3459C50.3902 74.0958 51.432 72.0793 52.7938 70.3625H107.056C108.619 73.0586 109.608 76.0874 109.907 79.2493C110.181 82.1476 111.646 84.8858 113.452 87.1689C115.842 90.1887 116.82 94.262 115.74 98.2654C114.069 104.461 108.054 108.324 101.859 107.459C101.835 107.455 101.811 107.471 101.804 107.495C101.797 107.521 101.77 107.536 101.744 107.529L82.5773 102.361L82.5224 102.346Z" fill="url(#paint1_linear_969_4823)" shape-rendering="crispEdges"/>
</g>
<g filter="url(#filter2_df_969_4823)">
<path fill-rule="evenodd" clip-rule="evenodd" d="M75.2198 51.7762C75.2333 51.7787 75.2469 51.7811 75.2605 51.7836C75.2741 51.786 75.2877 51.7884 75.3012 51.7908L82.8675 53.1503C82.8701 53.1508 82.8727 53.1513 82.8753 53.1517C82.8779 53.1522 82.8804 53.1526 82.883 53.1531L83.5107 53.2659L83.5176 53.2275C86.1482 53.3766 88.5365 51.5418 89.0142 48.8828C89.4491 46.4626 88.1625 44.1315 86.0291 43.1472C86.2195 38.6439 83.059 34.5796 78.4989 33.7603C75.1951 33.1666 71.987 34.4255 69.9418 36.795C69.5498 36.6474 69.1389 36.5332 68.7118 36.4565C64.9265 35.7763 61.3065 38.2936 60.6264 42.0789C59.9462 45.8642 62.4635 49.4842 66.2488 50.1643C66.4223 50.1955 66.5954 50.22 66.768 50.2379L73.614 51.468L73.6106 51.487L75.2198 51.7762Z" fill="url(#paint2_linear_969_4823)"/>
</g>
<g filter="url(#filter3_df_969_4823)">
<path fill-rule="evenodd" clip-rule="evenodd" d="M49.8505 66.8303C49.8664 66.8261 49.8823 66.8218 49.8983 66.8175C49.9142 66.8133 49.9301 66.809 49.946 66.8047L66.2026 62.4487L66.1822 62.3726C71.104 60.3902 73.8838 54.9999 72.4758 49.745C71.1942 44.9619 66.8515 41.8164 62.1202 41.8514C58.6079 33.4824 49.3661 28.7849 40.3544 31.1995C33.8252 32.949 29.0582 37.9923 27.3619 44.0625C26.5209 44.1295 25.6741 44.2736 24.83 44.4998C17.3494 46.5043 12.91 54.1934 14.9145 61.674C16.9189 69.1547 24.6081 73.594 32.0887 71.5896C32.4322 71.4976 32.7693 71.3935 33.0997 71.2781L46.6277 67.6533L46.6378 67.6911L49.8505 66.8303Z" fill="url(#paint3_linear_969_4823)" shape-rendering="crispEdges"/>
</g>
<g filter="url(#filter4_df_969_4823)">
<path fill-rule="evenodd" clip-rule="evenodd" d="M35.3597 70.7638L31.9756 36.4388C34.2536 33.989 37.2256 32.1293 40.6952 31.1996C49.7068 28.785 58.9486 33.4825 62.4609 41.8515C67.1923 41.8164 71.5352 44.9619 72.8168 49.7451C74.2249 55 71.4449 60.3905 66.523 62.3727L66.5434 62.4488L50.2881 66.8044L50.239 66.8176L50.1899 66.8307L46.9786 67.6912L46.9684 67.6533L35.3597 70.7638Z" fill="url(#paint4_linear_969_4823)"/>
</g>
<g filter="url(#filter5_b_969_4823)">
<mask id="path-6-inside-1_969_4823" fill="white">
<path fill-rule="evenodd" clip-rule="evenodd" d="M108.995 20.5564L107.492 17.2104C106.308 14.5742 103.881 12.7072 101.029 12.2387L62.6977 5.94108C59.846 5.47257 56.9494 6.46493 54.9841 8.58368L52.4896 11.273L33.1981 8.10348C31.9753 7.90259 30.7253 8.23797 29.7673 9.02394L25.5846 12.4556C22.72 14.8058 23.9623 19.4362 27.6186 20.037L129.762 36.8186C133.419 37.4193 136.077 33.4297 134.115 30.2865L131.25 25.697C130.594 24.6458 129.517 23.9281 128.294 23.7272L108.995 20.5564Z"/>
</mask>
<path fill-rule="evenodd" clip-rule="evenodd" d="M108.995 20.5564L107.492 17.2104C106.308 14.5742 103.881 12.7072 101.029 12.2387L62.6977 5.94108C59.846 5.47257 56.9494 6.46493 54.9841 8.58368L52.4896 11.273L33.1981 8.10348C31.9753 7.90259 30.7253 8.23797 29.7673 9.02394L25.5846 12.4556C22.72 14.8058 23.9623 19.4362 27.6186 20.037L129.762 36.8186C133.419 37.4193 136.077 33.4297 134.115 30.2865L131.25 25.697C130.594 24.6458 129.517 23.9281 128.294 23.7272L108.995 20.5564Z" fill="url(#paint5_linear_969_4823)" fill-opacity="0.4"/>
<path d="M108.995 20.5564L107.685 21.1448L108.001 21.8483L108.762 21.9734L108.995 20.5564ZM107.492 17.2104L106.182 17.7987L106.182 17.7987L107.492 17.2104ZM101.029 12.2387L100.796 13.6557L101.029 12.2387ZM62.6977 5.94108L62.9305 4.52411L62.6977 5.94108ZM54.9841 8.58368L53.9313 7.60714L53.9313 7.60714L54.9841 8.58368ZM52.4896 11.273L52.2568 12.6899L53.0179 12.815L53.5424 12.2495L52.4896 11.273ZM29.7673 9.02394L30.6781 10.1341L29.7673 9.02394ZM25.5846 12.4556L24.6738 11.3454L24.6738 11.3454L25.5846 12.4556ZM129.762 36.8186L129.53 38.2356L129.762 36.8186ZM134.115 30.2865L135.333 29.5261L134.115 30.2865ZM131.25 25.697L130.032 26.4574L131.25 25.697ZM110.305 19.968L108.802 16.622L106.182 17.7987L107.685 21.1448L110.305 19.968ZM108.802 16.622C107.42 13.5465 104.589 11.3683 101.262 10.8217L100.796 13.6557C103.173 14.0461 105.195 15.6019 106.182 17.7987L108.802 16.622ZM101.262 10.8217L62.9305 4.52411L62.4649 7.35805L100.796 13.6557L101.262 10.8217ZM62.9305 4.52411C59.6035 3.97751 56.2241 5.13526 53.9313 7.60714L56.0369 9.56022C57.6746 7.79459 60.0885 6.96763 62.4649 7.35805L62.9305 4.52411ZM53.9313 7.60714L51.4368 10.2964L53.5424 12.2495L56.0369 9.56022L53.9313 7.60714ZM52.7224 9.85598L33.4309 6.68651L32.9653 9.52046L52.2568 12.6899L52.7224 9.85598ZM33.4309 6.68651C31.8006 6.41865 30.1338 6.86582 28.8565 7.91379L30.6781 10.1341C31.3168 9.61011 32.1501 9.38653 32.9653 9.52046L33.4309 6.68651ZM28.8565 7.91379L24.6738 11.3454L26.4954 13.5657L30.6781 10.1341L28.8565 7.91379ZM24.6738 11.3454C20.8543 14.4791 22.5107 20.653 27.3858 21.4539L27.8514 18.62C25.4138 18.2195 24.5856 15.1325 26.4954 13.5657L24.6738 11.3454ZM27.3858 21.4539L129.53 38.2356L129.995 35.4016L27.8514 18.62L27.3858 21.4539ZM129.53 38.2356C134.405 39.0365 137.949 33.7171 135.333 29.5261L132.897 31.0469C134.205 33.1424 132.433 35.8021 129.995 35.4016L129.53 38.2356ZM135.333 29.5261L132.469 24.9366L130.032 26.4574L132.897 31.0469L135.333 29.5261ZM132.469 24.9366C131.594 23.5351 130.158 22.5781 128.527 22.3103L128.062 25.1442C128.877 25.2781 129.595 25.7566 130.032 26.4574L132.469 24.9366ZM128.527 22.3103L109.227 19.1394L108.762 21.9734L128.062 25.1442L128.527 22.3103Z" fill="url(#paint6_linear_969_4823)" mask="url(#path-6-inside-1_969_4823)"/>
</g>
<g style="mix-blend-mode:lighten" opacity="0.2" filter="url(#filter6_d_969_4823)">
<path d="M30.5396 19.3856L126.032 35.8993L115.424 147.015C115.143 149.962 112.667 152.213 109.706 152.213H48.9572C46.0052 152.213 43.5339 149.975 43.2416 147.038L30.5396 19.3856Z" fill="url(#paint7_linear_969_4823)" shape-rendering="crispEdges"/>
</g>
<g filter="url(#filter7_b_969_4823)">
<path d="M35.3242 75.1018C35.0688 72.5649 37.0607 70.3625 39.6104 70.3625H119.114C121.664 70.3625 123.656 72.5649 123.4 75.1018L116.174 146.9C115.952 149.101 114.1 150.777 111.888 150.777H46.8369C44.6248 150.777 42.7722 149.101 42.5506 146.9L35.3242 75.1018Z" fill="url(#paint8_linear_969_4823)"/>
<path d="M36.0386 75.0299C35.8258 72.9158 37.4856 71.0805 39.6104 71.0805H119.114C121.239 71.0805 122.899 72.9158 122.686 75.0299L115.459 146.828C115.275 148.663 113.731 150.059 111.888 150.059H46.8369C44.9935 150.059 43.4496 148.663 43.265 146.828L36.0386 75.0299Z" stroke="url(#paint9_linear_969_4823)" stroke-width="1.43597"/>
</g>
<rect x="76.4905" y="94.774" width="5.74388" height="45.951" rx="2.87194" fill="url(#paint10_linear_969_4823)"/>
<rect x="98.49" y="94.774" width="5.76371" height="46.1097" rx="2.88185" transform="rotate(8.00621 98.49 94.774)" fill="url(#paint11_linear_969_4823)"/>
<rect width="5.76371" height="46.1097" rx="2.88185" transform="matrix(-0.990253 0.13928 0.13928 0.990253 60.5078 94.774)" fill="url(#paint12_linear_969_4823)"/>
<g filter="url(#filter8_d_969_4823)">
<circle cx="124.596" cy="61.0287" r="0.717985" fill="white"/>
</g>
<g filter="url(#filter9_d_969_4823)">
<circle cx="120.288" cy="52.4129" r="0.717985" fill="#04FFD2"/>
</g>
<g filter="url(#filter10_d_969_4823)">
<circle cx="134.647" cy="49.541" r="0.717985" fill="#FF049B"/>
</g>
<g filter="url(#filter11_d_969_4823)">
<circle cx="25.5136" cy="29.4374" r="0.717985" fill="#638EFF"/>
</g>
<g filter="url(#filter12_d_969_4823)">
<circle cx="29.8215" cy="25.1295" r="0.717985" fill="#FFF96B"/>
</g>
<defs>
<filter id="filter0_df_969_4823" x="34.2802" y="45.1344" width="95.6894" height="76.8047" filterUnits="userSpaceOnUse" color-interpolation-filters="sRGB">
<feFlood flood-opacity="0" result="BackgroundImageFix"/>
<feColorMatrix in="SourceAlpha" type="matrix" values="0 0 0 0 0 0 0 0 0 0 0 0 0 0 0 0 0 0 127 0" result="hardAlpha"/>
<feOffset/>
<feGaussianBlur stdDeviation="7.17985"/>
<feComposite in2="hardAlpha" operator="out"/>
<feColorMatrix type="matrix" values="0 0 0 0 1 0 0 0 0 1 0 0 0 0 1 0 0 0 0.5 0"/>
<feBlend mode="normal" in2="BackgroundImageFix" result="effect1_dropShadow_969_4823"/>
<feBlend mode="normal" in="SourceGraphic" in2="effect1_dropShadow_969_4823" result="shape"/>
<feGaussianBlur stdDeviation="0.358992" result="effect2_foregroundBlur_969_4823"/>
</filter>
<filter id="filter1_df_969_4823" x="34.8478" y="56.0029" width="95.6894" height="65.9362" filterUnits="userSpaceOnUse" color-interpolation-filters="sRGB">
<feFlood flood-opacity="0" result="BackgroundImageFix"/>
<feColorMatrix in="SourceAlpha" type="matrix" values="0 0 0 0 0 0 0 0 0 0 0 0 0 0 0 0 0 0 127 0" result="hardAlpha"/>
<feOffset/>
<feGaussianBlur stdDeviation="7.17985"/>
<feComposite in2="hardAlpha" operator="out"/>
<feColorMatrix type="matrix" values="0 0 0 0 1 0 0 0 0 1 0 0 0 0 1 0 0 0 0.5 0"/>
<feBlend mode="normal" in2="BackgroundImageFix" result="effect1_dropShadow_969_4823"/>
<feBlend mode="normal" in="SourceGraphic" in2="effect1_dropShadow_969_4823" result="shape"/>
<feGaussianBlur stdDeviation="0.358992" result="effect2_foregroundBlur_969_4823"/>
</filter>
<filter id="filter2_df_969_4823" x="46.1557" y="19.2547" width="57.3024" height="48.3709" filterUnits="userSpaceOnUse" color-interpolation-filters="sRGB">
<feFlood flood-opacity="0" result="BackgroundImageFix"/>
<feColorMatrix in="SourceAlpha" type="matrix" values="0 0 0 0 0 0 0 0 0 0 0 0 0 0 0 0 0 0 127 0" result="hardAlpha"/>
<feOffset/>
<feGaussianBlur stdDeviation="7.17985"/>
<feComposite in2="hardAlpha" operator="out"/>
<feColorMatrix type="matrix" values="0 0 0 0 1 0 0 0 0 1 0 0 0 0 1 0 0 0 0.5 0"/>
<feBlend mode="normal" in2="BackgroundImageFix" result="effect1_dropShadow_969_4823"/>
<feBlend mode="normal" in="SourceGraphic" in2="effect1_dropShadow_969_4823" result="shape"/>
<feGaussianBlur stdDeviation="0.358992" result="effect2_foregroundBlur_969_4823"/>
</filter>
<filter id="filter3_df_969_4823" x="0.0734072" y="16.207" width="87.1276" height="70.2236" filterUnits="userSpaceOnUse" color-interpolation-filters="sRGB">
<feFlood flood-opacity="0" result="BackgroundImageFix"/>
<feColorMatrix in="SourceAlpha" type="matrix" values="0 0 0 0 0 0 0 0 0 0 0 0 0 0 0 0 0 0 127 0" result="hardAlpha"/>
<feOffset/>
<feGaussianBlur stdDeviation="7.17985"/>
<feComposite in2="hardAlpha" operator="out"/>
<feColorMatrix type="matrix" values="0 0 0 0 1 0 0 0 0 1 0 0 0 0 1 0 0 0 0.5 0"/>
<feBlend mode="normal" in2="BackgroundImageFix" result="effect1_dropShadow_969_4823"/>
<feBlend mode="normal" in="SourceGraphic" in2="effect1_dropShadow_969_4823" result="shape"/>
<feGaussianBlur stdDeviation="0.358992" result="effect2_foregroundBlur_969_4823"/>
</filter>
<filter id="filter4_df_969_4823" x="17.6159" y="16.2071" width="69.9259" height="68.9164" filterUnits="userSpaceOnUse" color-interpolation-filters="sRGB">
<feFlood flood-opacity="0" result="BackgroundImageFix"/>
<feColorMatrix in="SourceAlpha" type="matrix" values="0 0 0 0 0 0 0 0 0 0 0 0 0 0 0 0 0 0 127 0" result="hardAlpha"/>
<feOffset/>
<feGaussianBlur stdDeviation="7.17985"/>
<feComposite in2="hardAlpha" operator="out"/>
<feColorMatrix type="matrix" values="0 0 0 0 1 0 0 0 0 1 0 0 0 0 1 0 0 0 0.5 0"/>
<feBlend mode="normal" in2="BackgroundImageFix" result="effect1_dropShadow_969_4823"/>
<feBlend mode="normal" in="SourceGraphic" in2="effect1_dropShadow_969_4823" result="shape"/>
<feGaussianBlur stdDeviation="0.358992" result="effect2_foregroundBlur_969_4823"/>
</filter>
<filter id="filter5_b_969_4823" x="16.8253" y="-1.35288" width="125.135" height="45.4119" filterUnits="userSpaceOnUse" color-interpolation-filters="sRGB">
<feFlood flood-opacity="0" result="BackgroundImageFix"/>
<feGaussianBlur in="BackgroundImage" stdDeviation="3.58992"/>
<feComposite in2="SourceAlpha" operator="in" result="effect1_backgroundBlur_969_4823"/>
<feBlend mode="normal" in="SourceGraphic" in2="effect1_backgroundBlur_969_4823" result="shape"/>
</filter>
<filter id="filter6_d_969_4823" x="16.1799" y="5.02592" width="124.211" height="161.547" filterUnits="userSpaceOnUse" color-interpolation-filters="sRGB">
<feFlood flood-opacity="0" result="BackgroundImageFix"/>
<feColorMatrix in="SourceAlpha" type="matrix" values="0 0 0 0 0 0 0 0 0 0 0 0 0 0 0 0 0 0 127 0" result="hardAlpha"/>
<feOffset/>
<feGaussianBlur stdDeviation="7.17985"/>
<feComposite in2="hardAlpha" operator="out"/>
<feColorMatrix type="matrix" values="0 0 0 0 1 0 0 0 0 1 0 0 0 0 1 0 0 0 0.5 0"/>
<feBlend mode="normal" in2="BackgroundImageFix" result="effect1_dropShadow_969_4823"/>
<feBlend mode="normal" in="SourceGraphic" in2="effect1_dropShadow_969_4823" result="shape"/>
</filter>
<filter id="filter7_b_969_4823" x="30.9941" y="66.0546" width="96.7362" height="89.0302" filterUnits="userSpaceOnUse" color-interpolation-filters="sRGB">
<feFlood flood-opacity="0" result="BackgroundImageFix"/>
<feGaussianBlur in="BackgroundImage" stdDeviation="2.15395"/>
<feComposite in2="SourceAlpha" operator="in" result="effect1_backgroundBlur_969_4823"/>
<feBlend mode="normal" in="SourceGraphic" in2="effect1_backgroundBlur_969_4823" result="shape"/>
</filter>
<filter id="filter8_d_969_4823" x="121.006" y="57.4388" width="7.17991" height="7.17985" filterUnits="userSpaceOnUse" color-interpolation-filters="sRGB">
<feFlood flood-opacity="0" result="BackgroundImageFix"/>
<feColorMatrix in="SourceAlpha" type="matrix" values="0 0 0 0 0 0 0 0 0 0 0 0 0 0 0 0 0 0 127 0" result="hardAlpha"/>
<feMorphology radius="1.43597" operator="dilate" in="SourceAlpha" result="effect1_dropShadow_969_4823"/>
<feOffset/>
<feGaussianBlur stdDeviation="0.717985"/>
<feComposite in2="hardAlpha" operator="out"/>
<feColorMatrix type="matrix" values="0 0 0 0 1 0 0 0 0 1 0 0 0 0 1 0 0 0 1 0"/>
<feBlend mode="normal" in2="BackgroundImageFix" result="effect1_dropShadow_969_4823"/>
<feBlend mode="normal" in="SourceGraphic" in2="effect1_dropShadow_969_4823" result="shape"/>
</filter>
<filter id="filter9_d_969_4823" x="117.416" y="49.541" width="5.74395" height="5.74388" filterUnits="userSpaceOnUse" color-interpolation-filters="sRGB">
<feFlood flood-opacity="0" result="BackgroundImageFix"/>
<feColorMatrix in="SourceAlpha" type="matrix" values="0 0 0 0 0 0 0 0 0 0 0 0 0 0 0 0 0 0 127 0" result="hardAlpha"/>
<feMorphology radius="0.717985" operator="dilate" in="SourceAlpha" result="effect1_dropShadow_969_4823"/>
<feOffset/>
<feGaussianBlur stdDeviation="0.717985"/>
<feComposite in2="hardAlpha" operator="out"/>
<feColorMatrix type="matrix" values="0 0 0 0 0.0162877 0 0 0 0 1 0 0 0 0 0.822932 0 0 0 1 0"/>
<feBlend mode="normal" in2="BackgroundImageFix" result="effect1_dropShadow_969_4823"/>
<feBlend mode="normal" in="SourceGraphic" in2="effect1_dropShadow_969_4823" result="shape"/>
</filter>
<filter id="filter10_d_969_4823" x="131.775" y="46.669" width="5.74395" height="5.74388" filterUnits="userSpaceOnUse" color-interpolation-filters="sRGB">
<feFlood flood-opacity="0" result="BackgroundImageFix"/>
<feColorMatrix in="SourceAlpha" type="matrix" values="0 0 0 0 0 0 0 0 0 0 0 0 0 0 0 0 0 0 127 0" result="hardAlpha"/>
<feMorphology radius="0.717985" operator="dilate" in="SourceAlpha" result="effect1_dropShadow_969_4823"/>
<feOffset/>
<feGaussianBlur stdDeviation="0.717985"/>
<feComposite in2="hardAlpha" operator="out"/>
<feColorMatrix type="matrix" values="0 0 0 0 1 0 0 0 0 0.0156863 0 0 0 0 0.606275 0 0 0 1 0"/>
<feBlend mode="normal" in2="BackgroundImageFix" result="effect1_dropShadow_969_4823"/>
<feBlend mode="normal" in="SourceGraphic" in2="effect1_dropShadow_969_4823" result="shape"/>
</filter>
<filter id="filter11_d_969_4823" x="22.6417" y="26.5654" width="5.74395" height="5.74388" filterUnits="userSpaceOnUse" color-interpolation-filters="sRGB">
<feFlood flood-opacity="0" result="BackgroundImageFix"/>
<feColorMatrix in="SourceAlpha" type="matrix" values="0 0 0 0 0 0 0 0 0 0 0 0 0 0 0 0 0 0 127 0" result="hardAlpha"/>
<feMorphology radius="0.717985" operator="dilate" in="SourceAlpha" result="effect1_dropShadow_969_4823"/>
<feOffset/>
<feGaussianBlur stdDeviation="0.717985"/>
<feComposite in2="hardAlpha" operator="out"/>
<feColorMatrix type="matrix" values="0 0 0 0 0.388235 0 0 0 0 0.556863 0 0 0 0 1 0 0 0 1 0"/>
<feBlend mode="normal" in2="BackgroundImageFix" result="effect1_dropShadow_969_4823"/>
<feBlend mode="normal" in="SourceGraphic" in2="effect1_dropShadow_969_4823" result="shape"/>
</filter>
<filter id="filter12_d_969_4823" x="26.2316" y="21.5396" width="7.17991" height="7.17985" filterUnits="userSpaceOnUse" color-interpolation-filters="sRGB">
<feFlood flood-opacity="0" result="BackgroundImageFix"/>
<feColorMatrix in="SourceAlpha" type="matrix" values="0 0 0 0 0 0 0 0 0 0 0 0 0 0 0 0 0 0 127 0" result="hardAlpha"/>
<feMorphology radius="1.43597" operator="dilate" in="SourceAlpha" result="effect1_dropShadow_969_4823"/>
<feOffset/>
<feGaussianBlur stdDeviation="0.717985"/>
<feComposite in2="hardAlpha" operator="out"/>
<feColorMatrix type="matrix" values="0 0 0 0 1 0 0 0 0 0.821394 0 0 0 0 0.362121 0 0 0 1 0"/>
<feBlend mode="normal" in2="BackgroundImageFix" result="effect1_dropShadow_969_4823"/>
<feBlend mode="normal" in="SourceGraphic" in2="effect1_dropShadow_969_4823" result="shape"/>
</filter>
<linearGradient id="paint0_linear_969_4823" x1="89.7484" y1="59.292" x2="90.1496" y2="104.268" gradientUnits="userSpaceOnUse">
<stop stop-color="#4053FF"/>
<stop offset="1" stop-color="#9F40FF"/>
</linearGradient>
<linearGradient id="paint1_linear_969_4823" x1="40.8152" y1="95.2646" x2="118.729" y2="90.0546" gradientUnits="userSpaceOnUse">
<stop stop-color="white"/>
<stop offset="1" stop-color="white" stop-opacity="0"/>
</linearGradient>
<linearGradient id="paint2_linear_969_4823" x1="69.2166" y1="32.0924" x2="72.8724" y2="53.249" gradientUnits="userSpaceOnUse">
<stop stop-color="#E6F06C"/>
<stop offset="0.979167" stop-color="#52E28C"/>
</linearGradient>
<linearGradient id="paint3_linear_969_4823" x1="8.28202" y1="65.3366" x2="48.4892" y2="50.2593" gradientUnits="userSpaceOnUse">
<stop stop-color="white"/>
<stop offset="1" stop-color="white" stop-opacity="0"/>
</linearGradient>
<linearGradient id="paint4_linear_969_4823" x1="29.5157" y1="66.2358" x2="41.3251" y2="26.8719" gradientUnits="userSpaceOnUse">
<stop stop-color="#EFDF4F"/>
<stop offset="1" stop-color="#FF912B"/>
</linearGradient>
<linearGradient id="paint5_linear_969_4823" x1="132.469" y1="40.0099" x2="135.009" y2="13.2264" gradientUnits="userSpaceOnUse">
<stop stop-color="white" stop-opacity="0"/>
<stop offset="1" stop-color="white" stop-opacity="0.47"/>
</linearGradient>
<linearGradient id="paint6_linear_969_4823" x1="80.7982" y1="30.1554" x2="85.0977" y2="9.33207" gradientUnits="userSpaceOnUse">
<stop stop-color="white" stop-opacity="0.14"/>
<stop offset="1" stop-color="white" stop-opacity="0"/>
</linearGradient>
<linearGradient id="paint7_linear_969_4823" x1="82.9525" y1="152.213" x2="87.9783" y2="20.8216" gradientUnits="userSpaceOnUse">
<stop stop-color="white"/>
<stop offset="0.609856" stop-color="#A0FFAF" stop-opacity="0"/>
<stop offset="0.618795" stop-color="#00FF75"/>
<stop offset="1" stop-color="#FFA800" stop-opacity="0"/>
</linearGradient>
<linearGradient id="paint8_linear_969_4823" x1="83.6701" y1="66.7726" x2="69.6562" y2="156.44" gradientUnits="userSpaceOnUse">
<stop stop-color="#5643D2"/>
<stop offset="0.115035" stop-color="#6959D7" stop-opacity="0.35"/>
<stop offset="0.521309" stop-color="#AEA5E9" stop-opacity="0.01"/>
<stop offset="1" stop-color="white" stop-opacity="0"/>
</linearGradient>
<linearGradient id="paint9_linear_969_4823" x1="119.15" y1="78.857" x2="22.4293" y2="123.901" gradientUnits="userSpaceOnUse">
<stop stop-color="white" stop-opacity="0.3"/>
<stop offset="1" stop-color="white" stop-opacity="0"/>
</linearGradient>
<linearGradient id="paint10_linear_969_4823" x1="83.2041" y1="102.921" x2="75.3014" y2="103.438" gradientUnits="userSpaceOnUse">
<stop stop-color="white" stop-opacity="0.76"/>
<stop offset="1" stop-color="white" stop-opacity="0.2"/>
</linearGradient>
<linearGradient id="paint11_linear_969_4823" x1="105.227" y1="102.949" x2="97.2969" y2="103.468" gradientUnits="userSpaceOnUse">
<stop stop-color="white" stop-opacity="0.76"/>
<stop offset="1" stop-color="white" stop-opacity="0.2"/>
</linearGradient>
<linearGradient id="paint12_linear_969_4823" x1="6.7368" y1="8.17547" x2="-1.19314" y2="8.69409" gradientUnits="userSpaceOnUse">
<stop stop-color="white" stop-opacity="0.76"/>
<stop offset="1" stop-color="white" stop-opacity="0.2"/>
</linearGradient>
</defs>
</svg>
