<svg width="161" height="158" viewBox="0 0 161 158" fill="none" xmlns="http://www.w3.org/2000/svg">
<g filter="url(#filter0_b_674_2897)">
<path d="M3 64C3 52.9543 11.9543 44 23 44H141C152.046 44 161 52.9543 161 64V138C161 149.046 152.046 158 141 158H23C11.9543 158 3 149.046 3 138V64Z" fill="url(#paint0_linear_674_2897)"/>
<path d="M3.5 64C3.5 53.2304 12.2304 44.5 23 44.5H141C151.77 44.5 160.5 53.2304 160.5 64V138C160.5 148.77 151.77 157.5 141 157.5H23C12.2304 157.5 3.5 148.77 3.5 138V64Z" stroke="white" stroke-opacity="0.1"/>
</g>
<g filter="url(#filter1_d_674_2897)">
<g filter="url(#filter2_b_674_2897)">
<path d="M81.0727 59.8244L54 69.1598V38.7504C54 37.1206 55.0609 35.6806 56.6174 35.1975L78.7574 28.3265C81.1514 27.5835 83.58 29.3727 83.58 31.8793V56.3076C83.58 57.8947 82.5731 59.307 81.0727 59.8244Z" fill="url(#paint1_linear_674_2897)"/>
</g>
<g filter="url(#filter3_b_674_2897)">
<path d="M26.9273 59.8244L54 69.1598V38.7504C54 37.1206 52.9391 35.6806 51.3826 35.1975L29.2426 28.3265C26.8486 27.5835 24.42 29.3727 24.42 31.8793V56.3076C24.42 57.8947 25.4269 59.307 26.9273 59.8244Z" fill="url(#paint2_linear_674_2897)"/>
</g>
<path d="M27.6995 56.1079C27.8226 55.5849 28.5712 55.5975 28.6765 56.1243L32.2601 74.0423C32.4139 74.8114 31.6628 75.4502 30.9284 75.1748L25.4864 73.134C24.5443 72.7807 24.0113 71.7826 24.2418 70.8033L27.6995 56.1079Z" fill="white"/>
<g filter="url(#filter4_bd_674_2897)">
<path d="M101.403 26.1171C102.571 26.5142 102.571 28.1659 101.403 28.5629L54.4158 44.5386C54.1462 44.6303 53.8538 44.6303 53.5842 44.5386L6.59681 28.5629C5.42897 28.1658 5.42897 26.5141 6.59681 26.1171L53.5842 10.1414C53.8538 10.0497 54.1462 10.0497 54.4158 10.1414L101.403 26.1171Z" fill="url(#paint3_linear_674_2897)" fill-opacity="0.8" shape-rendering="crispEdges"/>
<path d="M101.195 26.7285C101.779 26.9271 101.779 27.7529 101.195 27.9515L54.2079 43.9272C54.0731 43.973 53.9269 43.973 53.7921 43.9272L6.8047 27.9515C6.22078 27.7529 6.22078 26.9271 6.8047 26.7285L53.7921 10.7528C53.9269 10.707 54.0731 10.707 54.2079 10.7528L101.195 26.7285Z" stroke="url(#paint4_linear_674_2897)" stroke-width="1.29167" shape-rendering="crispEdges"/>
</g>
<path d="M28.2258 53.8709V37.1282C28.2258 36.3104 28.7237 35.575 29.483 35.2713L52.9033 25.9032" stroke="white" stroke-linecap="round"/>
<g filter="url(#filter5_d_674_2897)">
<ellipse cx="53.4516" cy="25.9032" rx="3.29032" ry="1.64516" fill="white"/>
</g>
</g>
<path d="M27.936 95.504H25.464L22.152 97.016L23.136 99.248L25.464 98.192V113.168H27.936V95.504ZM34.1029 99.68C34.0069 99.872 33.9589 100.04 33.9109 100.184L31.6549 99.536C31.7029 99.272 31.8229 98.96 31.9669 98.696C33.2869 95.84 36.6949 94.64 39.5749 95.912C42.4789 96.992 43.8229 100.376 42.5269 103.256C42.2389 103.832 41.8549 104.432 41.3269 104.912L35.0869 110.504H43.3429V112.928H31.3189V110.6L39.5749 103.256C39.8149 102.992 40.0789 102.68 40.2229 102.368C40.9189 100.808 40.3189 98.864 38.5669 98.12C36.8629 97.376 34.8709 98.144 34.1029 99.68ZM53.337 94.472H50.865L45.729 114.344H48.225L53.337 94.472ZM58.9701 99.68C58.8741 99.872 58.8261 100.04 58.7781 100.184L56.5221 99.536C56.5701 99.272 56.6901 98.96 56.8341 98.696C58.1541 95.84 61.5621 94.64 64.4421 95.912C67.3461 96.992 68.6901 100.376 67.3941 103.256C67.1061 103.832 66.7221 104.432 66.1941 104.912L59.9541 110.504H68.2101V112.928H56.1861V110.6L64.4421 103.256C64.6821 102.992 64.9461 102.68 65.0901 102.368C65.7861 100.808 65.1861 98.864 63.4341 98.12C61.7301 97.376 59.7381 98.144 58.9701 99.68ZM81.6122 95.504H79.3322L70.7642 106.784V109.088H79.3322V113.168H81.6122V109.088H83.9882V106.688H81.6122V95.504ZM73.7162 106.688L79.3322 99.152V106.688H73.7162Z" fill="white"/>
<g filter="url(#filter6_b_674_2897)">
<rect x="107" y="56" width="42" height="20" rx="10" fill="#0F0F15" fill-opacity="0.5"/>
</g>
<path d="M119.189 61.992V62.674H121.422V63.246C121.422 64.621 120.41 65.864 118.98 66.37L119.409 67.041C120.542 66.623 121.444 65.754 121.862 64.654C122.291 65.666 123.182 66.469 124.293 66.854L124.711 66.194C123.303 65.721 122.269 64.555 122.269 63.246V62.674H124.469V61.992H119.189ZM120.553 70.594H127.01V69.901H121.378V67.58H120.553V70.594ZM125.866 68.24H126.702V61.189H125.866V68.24ZM128.44 68.922V69.615H137.163V68.922H133.192V67.085H136.305V66.403H130.365V64.797H136.085V61.893H129.518V62.586H135.249V64.126H129.54V67.085H132.367V68.922H128.44Z" fill="white"/>
<path d="M37.55 132.2C37.51 132.29 37.49 132.36 37.47 132.43L36.75 132.27C36.78 132.16 36.82 132.05 36.88 131.94C37.4 130.85 38.76 130.39 39.91 130.88C41.06 131.3 41.6 132.59 41.08 133.69C40.97 133.9 40.85 134.09 40.69 134.26L37.67 137.21H41.43V137.9H36.62V137.21L40.15 133.76C40.24 133.65 40.33 133.55 40.4 133.41C40.72 132.72 40.4 131.87 39.6 131.52C38.81 131.19 37.91 131.51 37.55 132.2ZM43.6047 132.2C43.5647 132.29 43.5447 132.36 43.5247 132.43L42.8047 132.27C42.8347 132.16 42.8747 132.05 42.9347 131.94C43.4547 130.85 44.8147 130.39 45.9647 130.88C47.1147 131.3 47.6547 132.59 47.1347 133.69C47.0247 133.9 46.9047 134.09 46.7447 134.26L43.7247 137.21H47.4847V137.9H42.6747V137.21L46.2047 133.76C46.2947 133.65 46.3847 133.55 46.4547 133.41C46.7747 132.72 46.4547 131.87 45.6547 131.52C44.8647 131.19 43.9647 131.51 43.6047 132.2ZM54.9394 129.99V131.14H52.4294V131.76H54.9394V132.82H52.4294V133.44H54.9394V136.48H55.6994V129.99H54.9394ZM49.0194 135.16H49.6694C50.9494 135.16 52.1394 135.1 53.5494 134.84L53.4694 134.2C52.1394 134.44 50.9994 134.51 49.7894 134.51V130.62H49.0194V135.16ZM50.1194 138.54H55.9394V137.91H50.8694V135.92H50.1194V138.54ZM60.7043 132.2C60.6643 132.29 60.6443 132.36 60.6243 132.43L59.9043 132.27C59.9343 132.16 59.9743 132.05 60.0343 131.94C60.5543 130.85 61.9143 130.39 63.0643 130.88C64.2143 131.3 64.7543 132.59 64.2343 133.69C64.1243 133.9 64.0043 134.09 63.8443 134.26L60.8243 137.21H64.5843V137.9H59.7743V137.21L63.3043 133.76C63.3943 133.65 63.4843 133.55 63.5543 133.41C63.8743 132.72 63.5543 131.87 62.7543 131.52C61.9643 131.19 61.0643 131.51 60.7043 132.2ZM71.999 129.99V134.16H70.249V134.66H71.999V135.15H72.759V129.99H71.999ZM65.579 133.3L65.679 133.88C66.389 133.88 67.169 133.88 67.989 133.85V135.18H68.739V133.82C69.599 133.77 70.489 133.7 71.339 133.57L71.289 133.08C69.409 133.28 67.279 133.3 65.579 133.3ZM66.269 131.47C66.269 132.29 67.109 132.78 68.419 132.78C69.709 132.78 70.569 132.29 70.569 131.47C70.569 130.65 69.709 130.16 68.419 130.16C67.109 130.16 66.269 130.65 66.269 131.47ZM66.929 136.02H72.009V136.75H66.949V138.63H73.069V138.07H67.689V137.27H72.759V135.47H66.929V136.02ZM66.979 131.47C66.979 131 67.539 130.69 68.419 130.69C69.279 130.69 69.859 131 69.859 131.47C69.859 131.95 69.279 132.26 68.419 132.26C67.539 132.26 66.979 131.95 66.979 131.47ZM78.7139 130.78H78.0139L76.8239 131.28L77.1039 131.92L78.0139 131.53V138H78.7139V130.78ZM82.6316 134.49C81.6516 134.49 81.0316 133.77 81.0316 132.97C81.0316 132.16 81.6516 131.44 82.6316 131.44C83.6116 131.44 84.2316 132.16 84.2316 132.97C84.2316 133.77 83.6116 134.49 82.6316 134.49ZM80.3016 132.97C80.3016 134.31 81.3916 135.26 82.7416 135.2C82.9016 135.2 82.9616 135.18 83.1216 135.14L81.5416 137.65L82.1716 138.03L84.7416 133.93C84.8916 133.64 84.9616 133.32 84.9616 132.97C84.9616 131.68 83.9416 130.71 82.6416 130.71C81.3216 130.71 80.3016 131.68 80.3016 132.97ZM88.4401 130.3C87.1401 130.3 86.1901 131.1 86.1901 132.25C86.1901 133.38 87.1401 134.18 88.4401 134.18C89.7501 134.18 90.7001 133.38 90.7001 132.25C90.7001 131.1 89.7501 130.3 88.4401 130.3ZM86.9301 132.25C86.9301 131.48 87.5801 130.94 88.4401 130.94C89.3101 130.94 89.9601 131.48 89.9601 132.25C89.9601 133.01 89.3101 133.55 88.4401 133.55C87.5801 133.55 86.9301 133.01 86.9301 132.25ZM87.5001 135.52H92.4001V136.43H87.5301V138.61H93.4501V138H88.2601V137.01H93.1401V134.91H87.5001V135.52ZM92.3801 134.48H93.1401V129.99H92.3801V134.48ZM99.6097 130.77V131.07H101.74V131.75C101.74 133.14 100.62 134.25 99.4797 134.68L99.6497 134.96C100.64 134.54 101.58 133.7 101.89 132.57C102.21 133.58 103.1 134.37 104.07 134.74L104.24 134.47C103.1 134.06 102.04 133.02 102.04 131.74V131.07H104.14V130.77H99.6097ZM100.78 138.5H105.96V135.64H100.78V138.5ZM101.08 138.21V135.92H105.64V138.21H101.08ZM105.64 135.2H105.96V132.7H107.35V132.41H105.96V130.08H105.64V135.2ZM109.18 130.6V130.89H114.51V131.18C114.51 131.85 114.51 132.67 114.24 133.83H108.15V134.12H115.92V133.83H114.56C114.82 132.68 114.82 131.85 114.82 131.18V130.6H109.18ZM109.15 138.5H114.91V135.56H109.15V138.5ZM109.46 138.21V135.84H114.6V138.21H109.46ZM116.88 131.72V132.02H121.29V131.72H119.24V130.35H118.92V131.72H116.88ZM117.28 134.64C117.28 135.75 118.04 136.51 119.08 136.51C120.12 136.51 120.87 135.75 120.87 134.64C120.87 133.55 120.12 132.78 119.08 132.78C118.04 132.78 117.28 133.55 117.28 134.64ZM117.58 134.64C117.58 133.78 118.21 133.08 119.08 133.08C119.94 133.08 120.57 133.78 120.57 134.64C120.57 135.52 119.94 136.23 119.08 136.23C118.21 136.23 117.58 135.52 117.58 134.64ZM121.84 138.17H122.16V134.1H123.72V138.64H124.03V130.08H123.72V133.81H122.16V130.31H121.84V138.17ZM132.5 130.08V138.64H132.82V130.08H132.5ZM125.61 136.56L125.84 136.82C126.74 136.24 127.51 135.1 127.8 133.74C128.08 134.99 128.82 136.07 129.71 136.61L129.93 136.36C128.82 135.72 127.95 134.2 127.95 132.64V131.51H129.77V131.22H125.75V131.51H127.64V132.64C127.64 134.33 126.72 135.92 125.61 136.56ZM129.07 133.59H130.8V138.15H131.11V130.34H130.8V133.31H129.07V133.59Z" fill="white"/>
<path d="M23.5 130.5C23.5 129.395 24.3954 128.5 25.5 128.5C26.6046 128.5 27.5 129.395 27.5 130.5V133.5H23.5V130.5Z" stroke="white"/>
<path fill-rule="evenodd" clip-rule="evenodd" d="M23 133C21.8954 133 21 133.895 21 135V138C21 139.105 21.8954 140 23 140H28C29.1046 140 30 139.105 30 138V135C30 133.895 29.1046 133 28 133H23ZM26.5 136C26.5 136.37 26.2989 136.693 26 136.866V137.5C26 137.776 25.7761 138 25.5 138C25.2239 138 25 137.776 25 137.5V136.866C24.7011 136.693 24.5 136.37 24.5 136C24.5 135.448 24.9477 135 25.5 135C26.0523 135 26.5 135.448 26.5 136Z" fill="white"/>
<defs>
<filter id="filter0_b_674_2897" x="-17" y="24" width="198" height="154" filterUnits="userSpaceOnUse" color-interpolation-filters="sRGB">
<feFlood flood-opacity="0" result="BackgroundImageFix"/>
<feGaussianBlur in="BackgroundImage" stdDeviation="10"/>
<feComposite in2="SourceAlpha" operator="in" result="effect1_backgroundBlur_674_2897"/>
<feBlend mode="normal" in="SourceGraphic" in2="effect1_backgroundBlur_674_2897" result="shape"/>
</filter>
<filter id="filter1_d_674_2897" x="0.554281" y="10.0726" width="106.891" height="75.5007" filterUnits="userSpaceOnUse" color-interpolation-filters="sRGB">
<feFlood flood-opacity="0" result="BackgroundImageFix"/>
<feColorMatrix in="SourceAlpha" type="matrix" values="0 0 0 0 0 0 0 0 0 0 0 0 0 0 0 0 0 0 127 0" result="hardAlpha"/>
<feOffset dy="5.16667"/>
<feGaussianBlur stdDeviation="2.58333"/>
<feComposite in2="hardAlpha" operator="out"/>
<feColorMatrix type="matrix" values="0 0 0 0 0 0 0 0 0 0 0 0 0 0 0 0 0 0 0.25 0"/>
<feBlend mode="normal" in2="BackgroundImageFix" result="effect1_dropShadow_674_2897"/>
<feBlend mode="normal" in="SourceGraphic" in2="effect1_dropShadow_674_2897" result="shape"/>
</filter>
<filter id="filter2_b_674_2897" x="44.7" y="18.8567" width="48.18" height="59.6031" filterUnits="userSpaceOnUse" color-interpolation-filters="sRGB">
<feFlood flood-opacity="0" result="BackgroundImageFix"/>
<feGaussianBlur in="BackgroundImage" stdDeviation="4.65"/>
<feComposite in2="SourceAlpha" operator="in" result="effect1_backgroundBlur_674_2897"/>
<feBlend mode="normal" in="SourceGraphic" in2="effect1_backgroundBlur_674_2897" result="shape"/>
</filter>
<filter id="filter3_b_674_2897" x="15.12" y="18.8567" width="48.18" height="59.6031" filterUnits="userSpaceOnUse" color-interpolation-filters="sRGB">
<feFlood flood-opacity="0" result="BackgroundImageFix"/>
<feGaussianBlur in="BackgroundImage" stdDeviation="4.65"/>
<feComposite in2="SourceAlpha" operator="in" result="effect1_backgroundBlur_674_2897"/>
<feBlend mode="normal" in="SourceGraphic" in2="effect1_backgroundBlur_674_2897" result="shape"/>
</filter>
<filter id="filter4_bd_674_2897" x="-7.19572" y="-2.84403" width="122.391" height="60.3681" filterUnits="userSpaceOnUse" color-interpolation-filters="sRGB">
<feFlood flood-opacity="0" result="BackgroundImageFix"/>
<feGaussianBlur in="BackgroundImage" stdDeviation="6.45833"/>
<feComposite in2="SourceAlpha" operator="in" result="effect1_backgroundBlur_674_2897"/>
<feColorMatrix in="SourceAlpha" type="matrix" values="0 0 0 0 0 0 0 0 0 0 0 0 0 0 0 0 0 0 127 0" result="hardAlpha"/>
<feOffset dy="5.16667"/>
<feGaussianBlur stdDeviation="2.58333"/>
<feComposite in2="hardAlpha" operator="out"/>
<feColorMatrix type="matrix" values="0 0 0 0 0 0 0 0 0 0 0 0 0 0 0 0 0 0 0.25 0"/>
<feBlend mode="normal" in2="effect1_backgroundBlur_674_2897" result="effect2_dropShadow_674_2897"/>
<feBlend mode="normal" in="SourceGraphic" in2="effect2_dropShadow_674_2897" result="shape"/>
</filter>
<filter id="filter5_d_674_2897" x="47.1613" y="22.2581" width="10.5807" height="7.29028" filterUnits="userSpaceOnUse" color-interpolation-filters="sRGB">
<feFlood flood-opacity="0" result="BackgroundImageFix"/>
<feColorMatrix in="SourceAlpha" type="matrix" values="0 0 0 0 0 0 0 0 0 0 0 0 0 0 0 0 0 0 127 0" result="hardAlpha"/>
<feOffset dx="-1"/>
<feGaussianBlur stdDeviation="1"/>
<feComposite in2="hardAlpha" operator="out"/>
<feColorMatrix type="matrix" values="0 0 0 0 0 0 0 0 0 0 0 0 0 0 0 0 0 0 0.25 0"/>
<feBlend mode="normal" in2="BackgroundImageFix" result="effect1_dropShadow_674_2897"/>
<feBlend mode="normal" in="SourceGraphic" in2="effect1_dropShadow_674_2897" result="shape"/>
</filter>
<filter id="filter6_b_674_2897" x="97" y="46" width="62" height="40" filterUnits="userSpaceOnUse" color-interpolation-filters="sRGB">
<feFlood flood-opacity="0" result="BackgroundImageFix"/>
<feGaussianBlur in="BackgroundImage" stdDeviation="5"/>
<feComposite in2="SourceAlpha" operator="in" result="effect1_backgroundBlur_674_2897"/>
<feBlend mode="normal" in="SourceGraphic" in2="effect1_backgroundBlur_674_2897" result="shape"/>
</filter>
<linearGradient id="paint0_linear_674_2897" x1="3" y1="44" x2="161" y2="158" gradientUnits="userSpaceOnUse">
<stop stop-color="white" stop-opacity="0"/>
<stop offset="1" stop-color="white" stop-opacity="0.1"/>
</linearGradient>
<linearGradient id="paint1_linear_674_2897" x1="85.1876" y1="18.0878" x2="65.1777" y2="82.9889" gradientUnits="userSpaceOnUse">
<stop stop-color="#10FF8C"/>
<stop offset="0.872792" stop-color="#B40DB8"/>
</linearGradient>
<linearGradient id="paint2_linear_674_2897" x1="22.8124" y1="18.0878" x2="42.8223" y2="82.9889" gradientUnits="userSpaceOnUse">
<stop stop-color="#10FF8C"/>
<stop offset="0.872792" stop-color="#B40DB8"/>
</linearGradient>
<linearGradient id="paint3_linear_674_2897" x1="3.00001" y1="40.7834" x2="25.2055" y2="-16.2131" gradientUnits="userSpaceOnUse">
<stop stop-color="white" stop-opacity="0"/>
<stop offset="1" stop-color="white" stop-opacity="0.47"/>
</linearGradient>
<linearGradient id="paint4_linear_674_2897" x1="90.125" y1="35.5" x2="12.9167" y2="12.125" gradientUnits="userSpaceOnUse">
<stop stop-color="white" stop-opacity="0.22"/>
<stop offset="1" stop-color="white" stop-opacity="0"/>
</linearGradient>
</defs>
</svg>
