<svg width="108" height="76" viewBox="0 0 108 76" fill="none" xmlns="http://www.w3.org/2000/svg">
<g filter="url(#filter0_d_772_1266)">
<g filter="url(#filter1_b_772_1266)">
<path d="M81.0727 49.8244L54 59.1598V28.7504C54 27.1206 55.0609 25.6806 56.6174 25.1975L78.7574 18.3265C81.1514 17.5835 83.58 19.3727 83.58 21.8793V46.3076C83.58 47.8947 82.5731 49.307 81.0727 49.8244Z" fill="url(#paint0_linear_772_1266)"/>
</g>
<g filter="url(#filter2_b_772_1266)">
<path d="M26.9273 49.8244L54 59.1598V28.7504C54 27.1206 52.9391 25.6806 51.3826 25.1975L29.2426 18.3265C26.8486 17.5835 24.42 19.3727 24.42 21.8793V46.3076C24.42 47.8947 25.4269 49.307 26.9273 49.8244Z" fill="url(#paint1_linear_772_1266)"/>
</g>
<path d="M27.6994 46.1077C27.8224 45.5848 28.571 45.5974 28.6764 46.1242L32.26 64.0422C32.4138 64.8113 31.6627 65.45 30.9283 65.1746L25.4862 63.1339C24.5442 62.7806 24.0112 61.7825 24.2417 60.8031L27.6994 46.1077Z" fill="white"/>
<g filter="url(#filter3_bd_772_1266)">
<path d="M101.403 16.1171C102.571 16.5142 102.571 18.1659 101.403 18.5629L54.4158 34.5386C54.1462 34.6303 53.8538 34.6303 53.5842 34.5386L6.59681 18.5629C5.42897 18.1658 5.42897 16.5141 6.59681 16.1171L53.5842 0.141367C53.8538 0.0496978 54.1462 0.0496976 54.4158 0.141367L101.403 16.1171Z" fill="url(#paint2_linear_772_1266)" fill-opacity="0.8" shape-rendering="crispEdges"/>
<path d="M101.195 16.7285C101.779 16.9271 101.779 17.7529 101.195 17.9515L54.2079 33.9272C54.0731 33.973 53.9269 33.973 53.7921 33.9272L6.8047 17.9515C6.22078 17.7529 6.22078 16.9271 6.8047 16.7285L53.7921 0.752824C53.9269 0.70699 54.0731 0.70699 54.2079 0.752824L101.195 16.7285Z" stroke="url(#paint3_linear_772_1266)" stroke-width="1.29167" shape-rendering="crispEdges"/>
</g>
<path d="M28.2258 43.8711V27.1284C28.2258 26.3105 28.7237 25.5751 29.483 25.2714L52.9033 15.9033" stroke="white" stroke-linecap="round"/>
<g filter="url(#filter4_d_772_1266)">
<ellipse cx="53.4517" cy="15.9032" rx="3.29032" ry="1.64516" fill="white"/>
</g>
</g>
<defs>
<filter id="filter0_d_772_1266" x="0.554281" y="0.0725098" width="106.891" height="75.5006" filterUnits="userSpaceOnUse" color-interpolation-filters="sRGB">
<feFlood flood-opacity="0" result="BackgroundImageFix"/>
<feColorMatrix in="SourceAlpha" type="matrix" values="0 0 0 0 0 0 0 0 0 0 0 0 0 0 0 0 0 0 127 0" result="hardAlpha"/>
<feOffset dy="5.16667"/>
<feGaussianBlur stdDeviation="2.58333"/>
<feComposite in2="hardAlpha" operator="out"/>
<feColorMatrix type="matrix" values="0 0 0 0 0 0 0 0 0 0 0 0 0 0 0 0 0 0 0.25 0"/>
<feBlend mode="normal" in2="BackgroundImageFix" result="effect1_dropShadow_772_1266"/>
<feBlend mode="normal" in="SourceGraphic" in2="effect1_dropShadow_772_1266" result="shape"/>
</filter>
<filter id="filter1_b_772_1266" x="44.7" y="8.85674" width="48.1801" height="59.6032" filterUnits="userSpaceOnUse" color-interpolation-filters="sRGB">
<feFlood flood-opacity="0" result="BackgroundImageFix"/>
<feGaussianBlur in="BackgroundImage" stdDeviation="4.65"/>
<feComposite in2="SourceAlpha" operator="in" result="effect1_backgroundBlur_772_1266"/>
<feBlend mode="normal" in="SourceGraphic" in2="effect1_backgroundBlur_772_1266" result="shape"/>
</filter>
<filter id="filter2_b_772_1266" x="15.1199" y="8.85674" width="48.1801" height="59.6032" filterUnits="userSpaceOnUse" color-interpolation-filters="sRGB">
<feFlood flood-opacity="0" result="BackgroundImageFix"/>
<feGaussianBlur in="BackgroundImage" stdDeviation="4.65"/>
<feComposite in2="SourceAlpha" operator="in" result="effect1_backgroundBlur_772_1266"/>
<feBlend mode="normal" in="SourceGraphic" in2="effect1_backgroundBlur_772_1266" result="shape"/>
</filter>
<filter id="filter3_bd_772_1266" x="-7.19572" y="-12.8442" width="122.391" height="60.3682" filterUnits="userSpaceOnUse" color-interpolation-filters="sRGB">
<feFlood flood-opacity="0" result="BackgroundImageFix"/>
<feGaussianBlur in="BackgroundImage" stdDeviation="6.45833"/>
<feComposite in2="SourceAlpha" operator="in" result="effect1_backgroundBlur_772_1266"/>
<feColorMatrix in="SourceAlpha" type="matrix" values="0 0 0 0 0 0 0 0 0 0 0 0 0 0 0 0 0 0 127 0" result="hardAlpha"/>
<feOffset dy="5.16667"/>
<feGaussianBlur stdDeviation="2.58333"/>
<feComposite in2="hardAlpha" operator="out"/>
<feColorMatrix type="matrix" values="0 0 0 0 0 0 0 0 0 0 0 0 0 0 0 0 0 0 0.25 0"/>
<feBlend mode="normal" in2="effect1_backgroundBlur_772_1266" result="effect2_dropShadow_772_1266"/>
<feBlend mode="normal" in="SourceGraphic" in2="effect2_dropShadow_772_1266" result="shape"/>
</filter>
<filter id="filter4_d_772_1266" x="47.1614" y="12.2581" width="10.5806" height="7.29028" filterUnits="userSpaceOnUse" color-interpolation-filters="sRGB">
<feFlood flood-opacity="0" result="BackgroundImageFix"/>
<feColorMatrix in="SourceAlpha" type="matrix" values="0 0 0 0 0 0 0 0 0 0 0 0 0 0 0 0 0 0 127 0" result="hardAlpha"/>
<feOffset dx="-1"/>
<feGaussianBlur stdDeviation="1"/>
<feComposite in2="hardAlpha" operator="out"/>
<feColorMatrix type="matrix" values="0 0 0 0 0 0 0 0 0 0 0 0 0 0 0 0 0 0 0.25 0"/>
<feBlend mode="normal" in2="BackgroundImageFix" result="effect1_dropShadow_772_1266"/>
<feBlend mode="normal" in="SourceGraphic" in2="effect1_dropShadow_772_1266" result="shape"/>
</filter>
<linearGradient id="paint0_linear_772_1266" x1="85.1876" y1="8.08777" x2="65.1777" y2="72.9889" gradientUnits="userSpaceOnUse">
<stop stop-color="#10FF8C"/>
<stop offset="0.872792" stop-color="#B40DB8"/>
</linearGradient>
<linearGradient id="paint1_linear_772_1266" x1="22.8124" y1="8.08777" x2="42.8223" y2="72.9889" gradientUnits="userSpaceOnUse">
<stop stop-color="#10FF8C"/>
<stop offset="0.872792" stop-color="#B40DB8"/>
</linearGradient>
<linearGradient id="paint2_linear_772_1266" x1="3.00001" y1="30.7834" x2="25.2055" y2="-26.2131" gradientUnits="userSpaceOnUse">
<stop stop-color="white" stop-opacity="0"/>
<stop offset="1" stop-color="white" stop-opacity="0.47"/>
</linearGradient>
<linearGradient id="paint3_linear_772_1266" x1="90.125" y1="25.5" x2="12.9167" y2="2.125" gradientUnits="userSpaceOnUse">
<stop stop-color="white" stop-opacity="0.22"/>
<stop offset="1" stop-color="white" stop-opacity="0"/>
</linearGradient>
</defs>
</svg>
