<svg width="81" height="76" viewBox="0 0 81 76" fill="none" xmlns="http://www.w3.org/2000/svg">
<g filter="url(#filter0_d_772_1246)">
<path fill-rule="evenodd" clip-rule="evenodd" d="M54.3647 30.8824C61.657 30.8824 67.5686 24.9708 67.5686 17.6785C67.5686 10.3862 61.657 4.47461 54.3647 4.47461C47.0724 4.47461 41.1608 10.3862 41.1608 17.6785C41.1608 24.9708 47.0724 30.8824 54.3647 30.8824ZM54.3647 33.3975C41.8636 33.3975 31.7295 43.5316 31.7295 56.0327V59.0135C31.7295 60.1453 32.647 61.0628 33.7788 61.0628H74.9507C76.0825 61.0628 77 60.1453 77 59.0135V56.0327C77 43.5316 66.8658 33.3975 54.3647 33.3975Z" fill="url(#paint0_linear_772_1246)"/>
</g>
<g filter="url(#filter1_bd_772_1246)">
<mask id="path-2-inside-1_772_1246" fill="white">
<path fill-rule="evenodd" clip-rule="evenodd" d="M32.215 30.5842C40.6606 30.5842 47.5071 23.7377 47.5071 15.2921C47.5071 6.8465 40.6606 0 32.215 0C23.7694 0 16.9229 6.8465 16.9229 15.2921C16.9229 23.7377 23.7694 30.5842 32.215 30.5842ZM32.215 33.497C17.7369 33.497 6 45.2338 6 59.712V63.1642C6 64.475 7.06259 65.5376 8.37337 65.5376H56.0566C57.3674 65.5376 58.43 64.475 58.43 63.1642V59.712C58.43 45.2338 46.6932 33.497 32.215 33.497Z"/>
</mask>
<path fill-rule="evenodd" clip-rule="evenodd" d="M32.215 30.5842C40.6606 30.5842 47.5071 23.7377 47.5071 15.2921C47.5071 6.8465 40.6606 0 32.215 0C23.7694 0 16.9229 6.8465 16.9229 15.2921C16.9229 23.7377 23.7694 30.5842 32.215 30.5842ZM32.215 33.497C17.7369 33.497 6 45.2338 6 59.712V63.1642C6 64.475 7.06259 65.5376 8.37337 65.5376H56.0566C57.3674 65.5376 58.43 64.475 58.43 63.1642V59.712C58.43 45.2338 46.6932 33.497 32.215 33.497Z" fill="url(#paint1_linear_772_1246)" fill-opacity="0.8" shape-rendering="crispEdges"/>
<path d="M46.2154 15.2921C46.2154 23.0243 39.9472 29.2925 32.215 29.2925V31.8758C41.374 31.8758 48.7988 24.451 48.7988 15.2921H46.2154ZM32.215 1.29167C39.9472 1.29167 46.2154 7.55987 46.2154 15.2921H48.7988C48.7988 6.13313 41.374 -1.29167 32.215 -1.29167V1.29167ZM18.2146 15.2921C18.2146 7.55987 24.4828 1.29167 32.215 1.29167V-1.29167C23.0561 -1.29167 15.6313 6.13313 15.6313 15.2921H18.2146ZM32.215 29.2925C24.4828 29.2925 18.2146 23.0243 18.2146 15.2921H15.6313C15.6313 24.451 23.0561 31.8758 32.215 31.8758V29.2925ZM7.29167 59.712C7.29167 45.9472 18.4502 34.7887 32.215 34.7887V32.2053C17.0235 32.2053 4.70833 44.5205 4.70833 59.712H7.29167ZM7.29167 63.1642V59.712H4.70833V63.1642H7.29167ZM8.37337 64.2459C7.77596 64.2459 7.29167 63.7616 7.29167 63.1642H4.70833C4.70833 65.1883 6.34923 66.8292 8.37337 66.8292V64.2459ZM56.0566 64.2459H8.37337V66.8292H56.0566V64.2459ZM57.1383 63.1642C57.1383 63.7616 56.6541 64.2459 56.0566 64.2459V66.8292C58.0808 66.8292 59.7217 65.1883 59.7217 63.1642H57.1383ZM57.1383 59.712V63.1642H59.7217V59.712H57.1383ZM32.215 34.7887C45.9798 34.7887 57.1383 45.9472 57.1383 59.712H59.7217C59.7217 44.5205 47.4065 32.2053 32.215 32.2053V34.7887Z" fill="url(#paint2_linear_772_1246)" mask="url(#path-2-inside-1_772_1246)"/>
</g>
<path d="M30.5679 52.3339V52.3339C30.5679 50.6151 31.9613 49.2217 33.6801 49.2217H38.5707C40.044 49.2217 41.2383 50.416 41.2383 51.8893V51.8893C41.2383 53.3626 40.044 54.5569 38.5707 54.5569H36.3477" stroke="white" stroke-width="1.58974" stroke-linecap="round" stroke-linejoin="round"/>
<path d="M34.5693 51.4447V51.4447C34.5693 53.1635 33.176 54.5569 31.4571 54.5569H26.5665C25.0932 54.5569 23.8989 53.3626 23.8989 51.8893V51.8893C23.8989 50.416 25.0932 49.2217 26.5665 49.2217H28.7895" stroke="white" stroke-width="1.58974" stroke-linecap="round" stroke-linejoin="round"/>
<defs>
<filter id="filter0_d_772_1246" x="27.7295" y="4.47461" width="53.2705" height="64.5881" filterUnits="userSpaceOnUse" color-interpolation-filters="sRGB">
<feFlood flood-opacity="0" result="BackgroundImageFix"/>
<feColorMatrix in="SourceAlpha" type="matrix" values="0 0 0 0 0 0 0 0 0 0 0 0 0 0 0 0 0 0 127 0" result="hardAlpha"/>
<feOffset dy="4"/>
<feGaussianBlur stdDeviation="2"/>
<feComposite in2="hardAlpha" operator="out"/>
<feColorMatrix type="matrix" values="0 0 0 0 0 0 0 0 0 0 0 0 0 0 0 0 0 0 0.25 0"/>
<feBlend mode="normal" in2="BackgroundImageFix" result="effect1_dropShadow_772_1246"/>
<feBlend mode="normal" in="SourceGraphic" in2="effect1_dropShadow_772_1246" result="shape"/>
</filter>
<filter id="filter1_bd_772_1246" x="0" y="-6" width="64.4299" height="81.8709" filterUnits="userSpaceOnUse" color-interpolation-filters="sRGB">
<feFlood flood-opacity="0" result="BackgroundImageFix"/>
<feGaussianBlur in="BackgroundImage" stdDeviation="3"/>
<feComposite in2="SourceAlpha" operator="in" result="effect1_backgroundBlur_772_1246"/>
<feColorMatrix in="SourceAlpha" type="matrix" values="0 0 0 0 0 0 0 0 0 0 0 0 0 0 0 0 0 0 127 0" result="hardAlpha"/>
<feOffset dy="5.16667"/>
<feGaussianBlur stdDeviation="2.58333"/>
<feComposite in2="hardAlpha" operator="out"/>
<feColorMatrix type="matrix" values="0 0 0 0 0 0 0 0 0 0 0 0 0 0 0 0 0 0 0.25 0"/>
<feBlend mode="normal" in2="effect1_backgroundBlur_772_1246" result="effect2_dropShadow_772_1246"/>
<feBlend mode="normal" in="SourceGraphic" in2="effect2_dropShadow_772_1246" result="shape"/>
</filter>
<linearGradient id="paint0_linear_772_1246" x1="52.7928" y1="4.47461" x2="64.7392" y2="61.0628" gradientUnits="userSpaceOnUse">
<stop stop-color="#FFE500"/>
<stop offset="1" stop-color="#E65B2F"/>
</linearGradient>
<linearGradient id="paint1_linear_772_1246" x1="58.5778" y1="65.4426" x2="-7.52686" y2="34.3809" gradientUnits="userSpaceOnUse">
<stop stop-color="white" stop-opacity="0"/>
<stop offset="0.730074" stop-color="white" stop-opacity="0.29"/>
</linearGradient>
<linearGradient id="paint2_linear_772_1246" x1="44.5515" y1="9.55756" x2="37.6968" y2="62.8309" gradientUnits="userSpaceOnUse">
<stop stop-color="white" stop-opacity="0.22"/>
<stop offset="1" stop-color="white" stop-opacity="0"/>
</linearGradient>
</defs>
</svg>
