<svg width="20" height="19" viewBox="0 0 20 19" fill="none" xmlns="http://www.w3.org/2000/svg">
<g opacity="0.7">
<line x1="6.0001" y1="3" x2="6.0001" stroke="white" stroke-width="1.2"/>
<line x1="14.0001" y1="3" x2="14.0001" stroke="white" stroke-width="1.2"/>
<line x1="10.0001" y1="3" x2="10.0001" stroke="white" stroke-width="1.2"/>
<mask id="path-4-inside-1_1003_1713" fill="white">
<path fill-rule="evenodd" clip-rule="evenodd" d="M0 6C0 3.79086 1.79086 2 4 2H16C18.2091 2 20 3.79086 20 6V15C20 17.2091 18.2091 19 16 19H4C1.79086 19 0 17.2091 0 15V6ZM8.48908 14.0426L5.41216 10.7093L6.58784 9.62404L9.0956 12.3408L13.4299 7.93872L14.5701 9.06128L9.64698 14.0613L9.05824 14.6592L8.48908 14.0426ZM6 5C6.55228 5 7 4.55228 7 4C7 3.44772 6.55228 3 6 3C5.44772 3 5 3.44772 5 4C5 4.55228 5.44772 5 6 5ZM15 4C15 4.55228 14.5523 5 14 5C13.4477 5 13 4.55228 13 4C13 3.44772 13.4477 3 14 3C14.5523 3 15 3.44772 15 4ZM10 5C10.5523 5 11 4.55228 11 4C11 3.44772 10.5523 3 10 3C9.44771 3 9 3.44772 9 4C9 4.55228 9.44771 5 10 5Z"/>
</mask>
<path fill-rule="evenodd" clip-rule="evenodd" d="M0 6C0 3.79086 1.79086 2 4 2H16C18.2091 2 20 3.79086 20 6V15C20 17.2091 18.2091 19 16 19H4C1.79086 19 0 17.2091 0 15V6ZM8.48908 14.0426L5.41216 10.7093L6.58784 9.62404L9.0956 12.3408L13.4299 7.93872L14.5701 9.06128L9.64698 14.0613L9.05824 14.6592L8.48908 14.0426ZM6 5C6.55228 5 7 4.55228 7 4C7 3.44772 6.55228 3 6 3C5.44772 3 5 3.44772 5 4C5 4.55228 5.44772 5 6 5ZM15 4C15 4.55228 14.5523 5 14 5C13.4477 5 13 4.55228 13 4C13 3.44772 13.4477 3 14 3C14.5523 3 15 3.44772 15 4ZM10 5C10.5523 5 11 4.55228 11 4C11 3.44772 10.5523 3 10 3C9.44771 3 9 3.44772 9 4C9 4.55228 9.44771 5 10 5Z" fill="white"/>
<path d="M5.41216 10.7093L4.73388 9.97449L3.99907 10.6528L4.67735 11.3876L5.41216 10.7093ZM8.48908 14.0426L7.75428 14.7209H7.75428L8.48908 14.0426ZM6.58784 9.62404L7.32265 8.94576L6.64437 8.21096L5.90956 8.88924L6.58784 9.62404ZM9.0956 12.3408L8.3608 13.0191L9.07225 13.7898L9.80817 13.0424L9.0956 12.3408ZM13.4299 7.93872L14.1316 7.22615L13.419 6.52455L12.7174 7.23711L13.4299 7.93872ZM14.5701 9.06128L15.2826 9.76289L15.9842 9.05032L15.2717 8.34872L14.5701 9.06128ZM9.64698 14.0613L8.93441 13.3597H8.93441L9.64698 14.0613ZM9.05824 14.6592L8.32344 15.3375L9.03489 16.1082L9.77081 15.3608L9.05824 14.6592ZM4 1C1.23858 1 -1 3.23858 -1 6H1C1 4.34315 2.34315 3 4 3V1ZM16 1H4V3H16V1ZM21 6C21 3.23858 18.7614 1 16 1V3C17.6569 3 19 4.34315 19 6H21ZM21 15V6H19V15H21ZM16 20C18.7614 20 21 17.7614 21 15H19C19 16.6569 17.6569 18 16 18V20ZM4 20H16V18H4V20ZM-1 15C-1 17.7614 1.23858 20 4 20V18C2.34315 18 1 16.6569 1 15H-1ZM-1 6V15H1V6H-1ZM4.67735 11.3876L7.75428 14.7209L9.22388 13.3643L6.14696 10.031L4.67735 11.3876ZM5.90956 8.88924L4.73388 9.97449L6.09044 11.4441L7.26612 10.3588L5.90956 8.88924ZM9.83041 11.6625L7.32265 8.94576L5.85304 10.3023L8.3608 13.0191L9.83041 11.6625ZM12.7174 7.23711L8.38304 11.6392L9.80817 13.0424L14.1425 8.64032L12.7174 7.23711ZM15.2717 8.34872L14.1316 7.22615L12.7283 8.65128L13.8684 9.77385L15.2717 8.34872ZM10.3595 14.7629L15.2826 9.76289L13.8575 8.35968L8.93441 13.3597L10.3595 14.7629ZM9.77081 15.3608L10.3595 14.7629L8.93441 13.3597L8.34568 13.9576L9.77081 15.3608ZM7.75428 14.7209L8.32344 15.3375L9.79305 13.9809L9.22388 13.3643L7.75428 14.7209ZM6 4V6C7.10457 6 8 5.10457 8 4H6ZM6 4H8C8 2.89543 7.10457 2 6 2V4ZM6 4V2C4.89543 2 4 2.89543 4 4H6ZM6 4H4C4 5.10457 4.89543 6 6 6V4ZM14 6C15.1046 6 16 5.10457 16 4H14V6ZM12 4C12 5.10457 12.8954 6 14 6V4H12ZM14 2C12.8954 2 12 2.89543 12 4H14V2ZM16 4C16 2.89543 15.1046 2 14 2V4H16ZM10 4V6C11.1046 6 12 5.10457 12 4H10ZM10 4H12C12 2.89543 11.1046 2 10 2V4ZM10 4V2C8.89543 2 8 2.89543 8 4H10ZM10 4H8C8 5.10457 8.89543 6 10 6V4Z" fill="white" mask="url(#path-4-inside-1_1003_1713)"/>
</g>
</svg>
