<svg
  width="16"
  height="16"
  viewBox="0 0 16 16"
  fill="none"
  xmlns="http://www.w3.org/2000/svg"
>
  <mask id="path-1-inside-1_443_360" fill="white">
    <path d="M2.23331 8.93589C2.40186 8.72999 2.47736 8.4655 2.46874 8.19954C2.46444 8.06693 2.46456 7.93443 2.46904 7.80229C2.47808 7.53591 2.40261 7.27093 2.23378 7.06469L1.22622 5.83388C0.962734 5.51202 0.926004 5.06067 1.13398 4.70044L1.94278 3.29956C2.15076 2.93933 2.56001 2.74546 2.97049 2.81271L4.54125 3.07006C4.8036 3.11304 5.07019 3.04641 5.29597 2.90607C5.35209 2.87119 5.40896 2.8371 5.4666 2.80382C5.52425 2.77054 5.58223 2.73832 5.6405 2.70716C5.8749 2.58184 6.06585 2.3843 6.15978 2.13566L6.72231 0.646601C6.86931 0.257487 7.24183 -3.13963e-08 7.65779 0L9.27538 1.22096e-07C9.69134 1.53493e-07 10.0639 0.257486 10.2109 0.646599L10.773 2.13453C10.8672 2.38385 11.0589 2.5817 11.2941 2.70706C11.4108 2.76926 11.5256 2.83541 11.6384 2.90545C11.8644 3.0459 12.1312 3.11276 12.3938 3.06974L13.9627 2.81269C14.3732 2.74544 14.7824 2.93931 14.9904 3.29954L15.7992 4.70042C16.0072 5.06064 15.9705 5.512 15.707 5.83386L14.6999 7.06406C14.5313 7.26996 14.4558 7.53446 14.4645 7.80042C14.4688 7.93306 14.4686 8.06557 14.4642 8.19774C14.4551 8.46412 14.5306 8.7291 14.6994 8.93534L15.707 10.1661C15.9704 10.488 16.0072 10.9393 15.7992 11.2996L14.9904 12.7004C14.7824 13.0607 14.3732 13.2545 13.9627 13.1873L12.3918 12.9299C12.1295 12.8869 11.863 12.9535 11.6372 13.0939C11.5811 13.1288 11.5242 13.1628 11.4666 13.1961C11.4089 13.2294 11.351 13.2616 11.2927 13.2928C11.0583 13.4181 10.8673 13.6157 10.7734 13.8643L10.2109 15.3534C10.0639 15.7425 9.69134 16 9.27539 16H7.65779C7.24183 16 6.86932 15.7425 6.72232 15.3534L6.16018 13.8654C6.06599 13.6161 5.87424 13.4182 5.63903 13.2929C5.52235 13.2307 5.40754 13.1645 5.29484 13.0945C5.06883 12.9541 4.80203 12.8872 4.53943 12.9302L2.9705 13.1873C2.56002 13.2545 2.15078 13.0606 1.9428 12.7004L1.134 11.2995C0.926022 10.9393 0.962751 10.488 1.22623 10.1661L2.23331 8.93589Z" />
  </mask>
  <path
    d="M5.4666 2.80382L4.9666 1.9378L5.4666 2.80382ZM11.4666 13.1961L11.9666 14.0622L11.4666 13.1961ZM1.134 11.2995L0.267973 11.7995H0.267973L1.134 11.2995ZM1.22623 10.1661L2.00002 10.7995L2.00002 10.7995L1.22623 10.1661ZM6.16018 13.8654L7.09565 13.512L6.16018 13.8654ZM5.63903 13.2929L6.10939 12.4104L5.63903 13.2929ZM7.65779 16V17V16ZM6.72232 15.3534L5.78685 15.7068L6.72232 15.3534ZM10.2109 15.3534L11.1463 15.7068L10.2109 15.3534ZM9.27539 16V15V16ZM11.2927 13.2928L10.8212 12.4109L11.2927 13.2928ZM10.7734 13.8643L9.83794 13.5109L10.7734 13.8643ZM12.3918 12.9299L12.5535 11.9431L12.3918 12.9299ZM11.6372 13.0939L12.1652 13.9431L11.6372 13.0939ZM14.9904 12.7004L14.1244 12.2004L14.9904 12.7004ZM13.9627 13.1873L13.801 14.1741L13.9627 13.1873ZM15.707 10.1661L14.9332 10.7996L15.707 10.1661ZM15.7992 11.2996L16.6652 11.7996L15.7992 11.2996ZM14.4642 8.19774L13.4647 8.16383L14.4642 8.19774ZM14.6994 8.93534L15.4732 8.3019L14.6994 8.93534ZM14.6999 7.06406L13.9261 6.43062V6.43062L14.6999 7.06406ZM14.4645 7.80042L13.465 7.8328L14.4645 7.80042ZM15.7992 4.70042L16.6652 4.20042L15.7992 4.70042ZM15.707 5.83386L16.4808 6.4673V6.4673L15.707 5.83386ZM11.6384 2.90545L12.1661 2.05607L11.6384 2.90545ZM12.3938 3.06974L12.2321 2.0829L12.3938 3.06974ZM10.773 2.13453L11.7084 1.78113L11.7084 1.78113L10.773 2.13453ZM11.2941 2.70706L11.7644 1.82458L11.2941 2.70706ZM9.27538 1.22096e-07V-1V1.22096e-07ZM10.2109 0.646599L9.27538 1L9.27538 1L10.2109 0.646599ZM6.72231 0.646601L7.65779 1V1L6.72231 0.646601ZM7.65779 0V1V0ZM5.6405 2.70716L6.11201 3.58902L5.6405 2.70716ZM6.15978 2.13566L5.22431 1.78226V1.78226L6.15978 2.13566ZM4.54125 3.07006L4.70293 2.08322L4.54125 3.07006ZM5.29597 2.90607L4.76807 2.05676L5.29597 2.90607ZM1.94278 3.29956L1.07676 2.79956L1.94278 3.29956ZM2.97049 2.81271L2.80881 3.79956H2.80881L2.97049 2.81271ZM1.22622 5.83388L0.452426 6.46732L1.22622 5.83388ZM1.13398 4.70044L2.00001 5.20044L1.13398 4.70044ZM2.9705 13.1873L2.80882 12.2004H2.80882L2.9705 13.1873ZM1.9428 12.7004L2.80882 12.2004L1.9428 12.7004ZM2.46874 8.19954L1.46926 8.23193L2.46874 8.19954ZM2.23331 8.93589L1.45952 8.30245L1.45952 8.30245L2.23331 8.93589ZM13.9627 2.81269L14.1244 3.79954L13.9627 2.81269ZM14.9904 3.29954L14.1244 3.79954V3.79954L14.9904 3.29954ZM5.29484 13.0945L4.76706 13.9439L5.29484 13.0945ZM4.53943 12.9302L4.70111 13.9171L4.53943 12.9302ZM2.46904 7.80229L1.46962 7.7684L2.46904 7.80229ZM2.23378 7.06469L3.00757 6.43125L2.23378 7.06469ZM1.46962 7.7684C1.46439 7.92256 1.46425 8.07716 1.46926 8.23193L3.46821 8.16715C3.46464 8.05669 3.46474 7.94631 3.46847 7.83618L1.46962 7.7684ZM0.452426 6.46732L1.45999 7.69813L3.00757 6.43125L2.00001 5.20044L0.452426 6.46732ZM1.07676 2.79956L0.267956 4.20044L2.00001 5.20044L2.80881 3.79956L1.07676 2.79956ZM4.70293 2.08322L3.13217 1.82587L2.80881 3.79956L4.37957 4.0569L4.70293 2.08322ZM4.9666 1.9378C4.89957 1.9765 4.83339 2.01616 4.76807 2.05676L5.82388 3.75537C5.87078 3.72622 5.91835 3.69771 5.9666 3.66985L4.9666 1.9378ZM5.16899 1.8253C5.10114 1.86158 5.03367 1.89908 4.9666 1.9378L5.9666 3.66985C6.01483 3.642 6.06331 3.61506 6.11201 3.58902L5.16899 1.8253ZM7.09526 2.48906L7.65779 1L5.78684 0.293201L5.22431 1.78226L7.09526 2.48906ZM7.65779 1L9.27538 1V-1L7.65779 -1V1ZM9.27538 1L9.83749 2.48793L11.7084 1.78113L11.1463 0.293198L9.27538 1ZM12.1661 2.05607C12.0346 1.97433 11.9006 1.89714 11.7644 1.82458L10.8238 3.58954C10.921 3.64138 11.0167 3.6965 11.1106 3.75484L12.1661 2.05607ZM13.801 1.82585L12.2321 2.0829L12.5555 4.05658L14.1244 3.79954L13.801 1.82585ZM16.6652 4.20042L15.8564 2.79954L14.1244 3.79954L14.9332 5.20042L16.6652 4.20042ZM15.4737 7.6975L16.4808 6.4673L14.9332 5.20042L13.9261 6.43062L15.4737 7.6975ZM15.4636 8.23165C15.4688 8.07747 15.469 7.92284 15.4639 7.76804L13.465 7.8328C13.4686 7.94327 13.4685 8.05368 13.4647 8.16383L15.4636 8.23165ZM16.4807 9.53268L15.4732 8.3019L13.9256 9.56878L14.9332 10.7996L16.4807 9.53268ZM15.8564 13.2004L16.6652 11.7996L14.9332 10.7996L14.1244 12.2004L15.8564 13.2004ZM12.2301 13.9168L13.801 14.1741L14.1244 12.2004L12.5535 11.9431L12.2301 13.9168ZM11.9666 14.0622C12.0337 14.0234 12.0999 13.9838 12.1652 13.9431L11.1093 12.2446C11.0624 12.2738 11.0148 12.3023 10.9666 12.3301L11.9666 14.0622ZM11.7642 14.1747C11.8321 14.1384 11.8995 14.1009 11.9666 14.0622L10.9666 12.3301C10.9184 12.358 10.8699 12.3849 10.8212 12.4109L11.7642 14.1747ZM9.83794 13.5109L9.27539 15L11.1463 15.7068L11.7089 14.2177L9.83794 13.5109ZM9.27539 15H7.65779V17H9.27539V15ZM7.65779 15L7.09565 13.512L5.22471 14.2188L5.78685 15.7068L7.65779 15ZM4.76706 13.9439C4.89859 14.0256 5.03255 14.1028 5.16867 14.1753L6.10939 12.4104C6.01214 12.3585 5.9165 12.3034 5.82262 12.2451L4.76706 13.9439ZM3.13219 14.1741L4.70111 13.9171L4.37775 11.9434L2.80882 12.2004L3.13219 14.1741ZM0.267973 11.7995L1.07677 13.2004L2.80882 12.2004L2.00002 10.7995L0.267973 11.7995ZM1.45952 8.30245L0.452443 9.53265L2.00002 10.7995L3.0071 9.56933L1.45952 8.30245ZM2.00002 10.7995L2.00002 10.7995L0.452443 9.53265C-0.0745227 10.1764 -0.14798 11.0791 0.267973 11.7995L2.00002 10.7995ZM7.09565 13.512C6.90333 13.0029 6.52552 12.6322 6.10939 12.4104L5.16867 14.1753C5.19394 14.1888 5.20999 14.2026 5.21852 14.2118C5.22651 14.2205 5.22638 14.2232 5.22471 14.2188L7.09565 13.512ZM7.65779 15V15L5.78685 15.7068C6.08084 16.485 6.82588 17 7.65779 17V15ZM9.27539 15V17C10.1073 17 10.8523 16.485 11.1463 15.7068L9.27539 15ZM10.8212 12.4109C10.4059 12.633 10.0297 13.0033 9.83794 13.5109L11.7089 14.2177C11.7072 14.2221 11.7071 14.2193 11.715 14.2108C11.7234 14.2016 11.7393 14.188 11.7642 14.1747L10.8212 12.4109ZM12.5535 11.9431C12.0181 11.8553 11.5092 11.996 11.1093 12.2446L12.1652 13.9431C12.1892 13.9282 12.2089 13.9213 12.2211 13.9186C12.2324 13.916 12.2347 13.9175 12.2301 13.9168L12.5535 11.9431ZM14.1244 12.2004V12.2004L13.801 14.1741C14.622 14.3086 15.4405 13.9209 15.8564 13.2004L14.1244 12.2004ZM14.9332 10.7996L14.9332 10.7996L16.6652 11.7996C17.0812 11.0791 17.0077 10.1764 16.4807 9.53268L14.9332 10.7996ZM13.4647 8.16383C13.4487 8.63512 13.5809 9.14767 13.9256 9.56878L15.4732 8.3019C15.4762 8.30556 15.4737 8.30429 15.4703 8.29306C15.4665 8.28106 15.4626 8.26026 15.4636 8.23165L13.4647 8.16383ZM13.9261 6.43062C13.5819 6.85107 13.4498 7.36257 13.465 7.8328L15.4639 7.76804C15.463 7.73932 15.467 7.71845 15.4707 7.7064C15.4742 7.69512 15.4767 7.69383 15.4737 7.6975L13.9261 6.43062ZM14.9332 5.20042V5.20042L16.4808 6.4673C17.0077 5.82358 17.0812 4.92087 16.6652 4.20042L14.9332 5.20042ZM11.1106 3.75484C11.5102 4.00315 12.0192 4.14443 12.5555 4.05658L12.2321 2.0829C12.2368 2.08213 12.2344 2.08363 12.2229 2.08102C12.2106 2.07824 12.1905 2.07124 12.1661 2.05607L11.1106 3.75484ZM9.83749 2.48793C10.0298 2.99702 10.4076 3.36774 10.8238 3.58954L11.7644 1.82458C11.7392 1.81112 11.7231 1.79731 11.7146 1.78809C11.7066 1.77947 11.7068 1.7767 11.7084 1.78113L9.83749 2.48793ZM9.27538 1H9.27538L11.1463 0.293199C10.8523 -0.485028 10.1073 -1 9.27538 -1V1ZM7.65779 1V1V-1C6.82588 -1 6.08084 -0.485026 5.78684 0.293202L7.65779 1ZM6.11201 3.58902C6.52728 3.36699 6.90351 2.99663 7.09526 2.48906L5.22431 1.78226C5.22595 1.77791 5.22606 1.78066 5.21818 1.78919C5.20975 1.79832 5.19392 1.81197 5.16899 1.8253L6.11201 3.58902ZM4.37957 4.0569C4.9151 4.14464 5.42399 4.00393 5.82388 3.75537L4.76807 2.05676C4.744 2.07172 4.72421 2.07863 4.71206 2.08137C4.70068 2.08394 4.69834 2.08247 4.70293 2.08322L4.37957 4.0569ZM2.80881 3.79956H2.80881L3.13217 1.82587C2.3112 1.69137 1.49271 2.07911 1.07676 2.79956L2.80881 3.79956ZM2.00001 5.20044H2.00001L0.267956 4.20044C-0.147998 4.92089 -0.0745394 5.8236 0.452426 6.46732L2.00001 5.20044ZM2.80882 12.2004H2.80882L1.07677 13.2004C1.49273 13.9209 2.31122 14.3086 3.13219 14.1741L2.80882 12.2004ZM1.46926 8.23193C1.47019 8.26064 1.46623 8.2815 1.46249 8.29355C1.45899 8.30482 1.45651 8.30611 1.45952 8.30245L3.0071 9.56933C3.35128 9.14888 3.48345 8.6374 3.46821 8.16715L1.46926 8.23193ZM14.1244 3.79954L15.8564 2.79954C15.4405 2.07908 14.622 1.69135 13.801 1.82585L14.1244 3.79954ZM5.82262 12.2451C5.423 11.9968 4.91396 11.8555 4.37775 11.9434L4.70111 13.9171C4.69644 13.9178 4.69879 13.9163 4.7103 13.9189C4.72261 13.9217 4.74266 13.9287 4.76706 13.9439L5.82262 12.2451ZM3.46847 7.83618C3.48445 7.3649 3.3523 6.85236 3.00757 6.43125L1.45999 7.69813C1.45699 7.69447 1.45945 7.69574 1.46293 7.70697C1.46666 7.71898 1.47059 7.73978 1.46962 7.7684L3.46847 7.83618Z"
    fill="#C4C4C4"
    mask="url(#path-1-inside-1_443_360)"
  />
  <circle
    cx="8.39999"
    cy="8.01371"
    r="2.91193"
    transform="rotate(90 8.39999 8.01371)"
    stroke="#C4C4C4"
    stroke-width="0.976137"
  />
</svg>