<svg width="72" height="77" viewBox="0 0 72 77" fill="none" xmlns="http://www.w3.org/2000/svg">
<path d="M23 17H72V61C72 63.7614 69.7614 66 67 66H28C25.2386 66 23 63.7614 23 61V17Z" fill="url(#paint0_linear_772_197)"/>
<rect x="26" y="4" width="44" height="11" fill="url(#paint1_linear_772_197)"/>
<path d="M70 2H29C26.7909 2 25 3.79086 25 6V17H70" stroke="#D7562E" stroke-width="4" stroke-linecap="round"/>
<path d="M70 2H29C26.7909 2 25 3.79086 25 6V13C25 15.2091 26.7909 17 29 17H70" stroke="#D7562E" stroke-width="4" stroke-linecap="round"/>
<g filter="url(#filter0_bd_772_197)">
<rect x="6" y="23" width="49" height="43" rx="5" fill="url(#paint2_linear_772_197)" fill-opacity="0.8" shape-rendering="crispEdges"/>
<rect x="6.64583" y="23.6458" width="47.7083" height="41.7083" rx="4.35417" stroke="url(#paint3_linear_772_197)" stroke-width="1.29167" shape-rendering="crispEdges"/>
</g>
<rect x="14" y="30" width="33" height="7" rx="2" fill="white"/>
<rect opacity="0.5" x="14" y="43" width="33" height="3" rx="1.5" fill="white"/>
<rect opacity="0.5" x="14" y="49" width="18" height="3" rx="1.5" fill="white"/>
<defs>
<filter id="filter0_bd_772_197" x="-6.91667" y="10.0833" width="74.8333" height="68.8333" filterUnits="userSpaceOnUse" color-interpolation-filters="sRGB">
<feFlood flood-opacity="0" result="BackgroundImageFix"/>
<feGaussianBlur in="BackgroundImage" stdDeviation="6.45833"/>
<feComposite in2="SourceAlpha" operator="in" result="effect1_backgroundBlur_772_197"/>
<feColorMatrix in="SourceAlpha" type="matrix" values="0 0 0 0 0 0 0 0 0 0 0 0 0 0 0 0 0 0 127 0" result="hardAlpha"/>
<feOffset dy="5.16667"/>
<feGaussianBlur stdDeviation="2.58333"/>
<feComposite in2="hardAlpha" operator="out"/>
<feColorMatrix type="matrix" values="0 0 0 0 0 0 0 0 0 0 0 0 0 0 0 0 0 0 0.25 0"/>
<feBlend mode="normal" in2="effect1_backgroundBlur_772_197" result="effect2_dropShadow_772_197"/>
<feBlend mode="normal" in="SourceGraphic" in2="effect2_dropShadow_772_197" result="shape"/>
</filter>
<linearGradient id="paint0_linear_772_197" x1="37.2917" y1="17" x2="45.7342" y2="67.6554" gradientUnits="userSpaceOnUse">
<stop stop-color="#D75329"/>
<stop offset="1" stop-color="#D15884"/>
</linearGradient>
<linearGradient id="paint1_linear_772_197" x1="38.8333" y1="4" x2="39.3195" y2="15.6672" gradientUnits="userSpaceOnUse">
<stop stop-color="#DFA598"/>
<stop offset="1" stop-color="#F5AFAF"/>
</linearGradient>
<linearGradient id="paint2_linear_772_197" x1="49.4944" y1="66" x2="15.2041" y2="21.2255" gradientUnits="userSpaceOnUse">
<stop stop-color="white" stop-opacity="0"/>
<stop offset="1" stop-color="white" stop-opacity="0.47"/>
</linearGradient>
<linearGradient id="paint3_linear_772_197" x1="42.0294" y1="29.2708" x2="38.8457" y2="64.5152" gradientUnits="userSpaceOnUse">
<stop stop-color="white" stop-opacity="0.22"/>
<stop offset="1" stop-color="white" stop-opacity="0"/>
</linearGradient>
</defs>
</svg>
