<svg width="165" height="148" viewBox="0 0 165 148" fill="none" xmlns="http://www.w3.org/2000/svg">
<g filter="url(#filter0_df_1466_5093)">
<path fill-rule="evenodd" clip-rule="evenodd" d="M97.4688 104.499C97.4935 104.506 97.5182 104.513 97.543 104.519C97.5677 104.526 97.5925 104.533 97.6172 104.539L120.608 110.739C120.64 110.748 120.672 110.729 120.681 110.697V110.697C120.689 110.668 120.717 110.65 120.747 110.654C128.181 111.693 135.399 107.058 137.404 99.6227C138.699 94.8186 137.526 89.9307 134.658 86.307C132.491 83.5673 130.732 80.2815 130.403 76.8035C129.405 66.249 122.002 56.9295 111.164 54.0069C103.168 51.8506 95.0377 53.6444 88.8461 58.1957C87.0797 59.4943 84.7635 59.8616 82.6468 59.2908V59.2908C72.038 56.43 61.1187 62.711 58.2579 73.3198C55.3971 83.9287 61.6781 94.8479 72.2869 97.7087C72.7729 97.8398 73.2595 97.9516 73.7459 98.0448L92.9069 103.212C92.9217 103.216 92.9304 103.231 92.9264 103.246V103.246C92.9224 103.26 92.9312 103.276 92.9459 103.28L97.4688 104.499Z" fill="url(#paint0_linear_1466_5093)"/>
</g>
<g filter="url(#filter1_df_1466_5093)">
<path fill-rule="evenodd" clip-rule="evenodd" d="M98.2248 104.519L98.1506 104.499L93.6278 103.28C93.613 103.276 93.6043 103.26 93.6083 103.246C93.6123 103.231 93.6035 103.216 93.5888 103.212L74.4281 98.0449C73.9413 97.9518 73.4545 97.8398 72.9682 97.7087C62.9656 95.0114 56.8104 85.1503 58.5374 75.14H130.873C130.962 75.6907 131.032 76.2456 131.085 76.804C131.414 80.2818 133.172 83.5676 135.34 86.3072C138.207 89.9309 139.38 94.8187 138.085 99.6226C136.08 107.058 128.862 111.693 121.428 110.654C121.399 110.65 121.371 110.668 121.363 110.697C121.354 110.729 121.322 110.748 121.29 110.739L98.2991 104.539L98.2248 104.519Z" fill="url(#paint1_linear_1466_5093)" shape-rendering="crispEdges"/>
</g>
<g filter="url(#filter2_df_1466_5093)">
<path fill-rule="evenodd" clip-rule="evenodd" d="M89.4657 43.8376C89.4807 43.8404 89.4958 43.8431 89.5108 43.8458C89.5258 43.8485 89.5409 43.8512 89.5559 43.8538L99.4108 45.6246L99.4191 45.5785C102.576 45.7575 105.442 43.5557 106.015 40.365C106.537 37.4608 104.993 34.6635 102.433 33.4824C102.661 28.0786 98.8688 23.2016 93.3968 22.2183C89.4323 21.506 85.5827 23.0167 83.1285 25.8599C82.6581 25.6828 82.165 25.5458 81.6526 25.4537C77.1103 24.6376 72.7664 27.6582 71.9502 32.2005C71.1341 36.7428 74.1547 41.0866 78.697 41.9028C78.9052 41.9402 79.1129 41.9696 79.32 41.9911L87.535 43.4671L87.5309 43.49L89.4657 43.8376Z" fill="url(#paint2_linear_1466_5093)"/>
</g>
<g filter="url(#filter3_df_1466_5093)">
<path fill-rule="evenodd" clip-rule="evenodd" d="M62.2162 59.7653C62.2403 59.7538 62.2643 59.7423 62.2883 59.7307C62.3123 59.7192 62.3362 59.7076 62.3602 59.6959L80.5353 50.9387L80.4942 50.8535C85.8544 47.4171 87.928 40.441 85.0944 34.5599C82.5151 29.2069 76.6927 26.4681 71.1223 27.566C65.1123 18.4833 53.167 15.0088 43.0815 19.8682C35.7743 23.3891 31.2801 30.3997 30.6359 37.9354C29.6593 38.2022 28.6932 38.5612 27.7485 39.0164C19.3764 43.0503 15.8596 53.1073 19.8935 61.4794C23.9274 69.8514 33.9844 73.3682 42.3565 69.3344C42.7414 69.1489 43.116 68.9507 43.4802 68.7405L58.6186 61.4465L58.639 61.4889L62.2162 59.7653Z" fill="url(#paint3_linear_1466_5093)" shape-rendering="crispEdges"/>
</g>
<g filter="url(#filter4_df_1466_5093)">
<path fill-rule="evenodd" clip-rule="evenodd" d="M62.641 59.6783C62.6572 59.6705 62.6735 59.6627 62.6898 59.6548C62.706 59.647 62.7223 59.6391 62.7385 59.6313L80.9374 50.8626L80.8963 50.7774C86.2565 47.3411 88.3301 40.365 85.4965 34.4839C82.9171 29.1307 77.0944 26.3919 71.5238 27.4901C65.5138 18.4074 53.5685 14.9329 43.483 19.7923C36.1758 23.3131 31.6817 30.3237 31.0374 37.8594C30.0609 38.1262 29.0947 38.4853 28.15 38.9404C19.7779 42.9743 16.2611 53.0313 20.295 61.4034C24.3289 69.7755 34.3859 73.2923 42.7579 69.2584C43.1422 69.0732 43.5163 68.8754 43.8798 68.6656L59.0206 61.3704L59.0411 61.4128L62.641 59.6783Z" fill="url(#paint4_linear_1466_5093)"/>
</g>
<g filter="url(#filter5_d_1466_5093)">
<circle cx="148.711" cy="54.9396" r="0.861562" fill="white"/>
</g>
<g filter="url(#filter6_d_1466_5093)">
<circle cx="143.542" cy="44.601" r="0.861562" fill="#04FFD2"/>
</g>
<g filter="url(#filter7_d_1466_5093)">
<circle cx="160.773" cy="41.1548" r="0.861562" fill="#FF049B"/>
</g>
<g filter="url(#filter8_d_1466_5093)">
<circle cx="17.8616" cy="17.031" r="0.861562" fill="#638EFF"/>
</g>
<g filter="url(#filter9_d_1466_5093)">
<circle cx="23.031" cy="11.8617" r="0.861562" fill="#FFF96B"/>
</g>
<g filter="url(#filter10_b_1466_5093)">
<path d="M22 73.5001C22 67.9772 26.4772 63.5001 32 63.5001H57.4227C59.5227 63.5001 61.5694 64.1612 63.2726 65.3897L71.7066 71.473C73.4098 72.7015 75.4565 73.3626 77.5566 73.3626H128.653C134.176 73.3626 138.653 77.8398 138.653 83.3626V138C138.653 143.523 134.176 148 128.653 148H32C26.4772 148 22 143.523 22 138L22 73.5001Z" fill="url(#paint5_linear_1466_5093)" fill-opacity="0.3"/>
<path d="M137.935 83.3626V138C137.935 143.126 133.779 147.282 128.653 147.282H32C26.8737 147.282 22.718 143.126 22.718 138V73.5001C22.718 68.3737 26.8737 64.218 32 64.218H57.4227C59.3719 64.218 61.2717 64.8317 62.8526 65.972L71.2866 72.0553C73.1121 73.372 75.3058 74.0806 77.5566 74.0806H128.653C133.779 74.0806 137.935 78.2363 137.935 83.3626Z" stroke="url(#paint6_linear_1466_5093)" stroke-width="1.43597"/>
</g>
<defs>
<filter id="filter0_df_1466_5093" x="40.3357" y="35.8669" width="114.824" height="92.1635" filterUnits="userSpaceOnUse" color-interpolation-filters="sRGB">
<feFlood flood-opacity="0" result="BackgroundImageFix"/>
<feColorMatrix in="SourceAlpha" type="matrix" values="0 0 0 0 0 0 0 0 0 0 0 0 0 0 0 0 0 0 127 0" result="hardAlpha"/>
<feOffset/>
<feGaussianBlur stdDeviation="8.61562"/>
<feComposite in2="hardAlpha" operator="out"/>
<feColorMatrix type="matrix" values="0 0 0 0 1 0 0 0 0 1 0 0 0 0 1 0 0 0 0.5 0"/>
<feBlend mode="normal" in2="BackgroundImageFix" result="effect1_dropShadow_1466_5093"/>
<feBlend mode="normal" in="SourceGraphic" in2="effect1_dropShadow_1466_5093" result="shape"/>
<feGaussianBlur stdDeviation="0.430781" result="effect2_foregroundBlur_1466_5093"/>
</filter>
<filter id="filter1_df_1466_5093" x="41.0168" y="57.9088" width="114.824" height="70.1215" filterUnits="userSpaceOnUse" color-interpolation-filters="sRGB">
<feFlood flood-opacity="0" result="BackgroundImageFix"/>
<feColorMatrix in="SourceAlpha" type="matrix" values="0 0 0 0 0 0 0 0 0 0 0 0 0 0 0 0 0 0 127 0" result="hardAlpha"/>
<feOffset/>
<feGaussianBlur stdDeviation="8.61562"/>
<feComposite in2="hardAlpha" operator="out"/>
<feColorMatrix type="matrix" values="0 0 0 0 1 0 0 0 0 1 0 0 0 0 1 0 0 0 0.5 0"/>
<feBlend mode="normal" in2="BackgroundImageFix" result="effect1_dropShadow_1466_5093"/>
<feBlend mode="normal" in="SourceGraphic" in2="effect1_dropShadow_1466_5093" result="shape"/>
<feGaussianBlur stdDeviation="0.430781" result="effect2_foregroundBlur_1466_5093"/>
</filter>
<filter id="filter2_df_1466_5093" x="54.5857" y="4.8121" width="68.7613" height="58.0438" filterUnits="userSpaceOnUse" color-interpolation-filters="sRGB">
<feFlood flood-opacity="0" result="BackgroundImageFix"/>
<feColorMatrix in="SourceAlpha" type="matrix" values="0 0 0 0 0 0 0 0 0 0 0 0 0 0 0 0 0 0 127 0" result="hardAlpha"/>
<feOffset/>
<feGaussianBlur stdDeviation="8.61562"/>
<feComposite in2="hardAlpha" operator="out"/>
<feColorMatrix type="matrix" values="0 0 0 0 1 0 0 0 0 1 0 0 0 0 1 0 0 0 0.5 0"/>
<feBlend mode="normal" in2="BackgroundImageFix" result="effect1_dropShadow_1466_5093"/>
<feBlend mode="normal" in="SourceGraphic" in2="effect1_dropShadow_1466_5093" result="shape"/>
<feGaussianBlur stdDeviation="0.430781" result="effect2_foregroundBlur_1466_5093"/>
</filter>
<filter id="filter3_df_1466_5093" x="0.990442" y="0.43899" width="102.605" height="87.7984" filterUnits="userSpaceOnUse" color-interpolation-filters="sRGB">
<feFlood flood-opacity="0" result="BackgroundImageFix"/>
<feColorMatrix in="SourceAlpha" type="matrix" values="0 0 0 0 0 0 0 0 0 0 0 0 0 0 0 0 0 0 127 0" result="hardAlpha"/>
<feOffset/>
<feGaussianBlur stdDeviation="8.61562"/>
<feComposite in2="hardAlpha" operator="out"/>
<feColorMatrix type="matrix" values="0 0 0 0 1 0 0 0 0 1 0 0 0 0 1 0 0 0 0.5 0"/>
<feBlend mode="normal" in2="BackgroundImageFix" result="effect1_dropShadow_1466_5093"/>
<feBlend mode="normal" in="SourceGraphic" in2="effect1_dropShadow_1466_5093" result="shape"/>
<feGaussianBlur stdDeviation="0.430781" result="effect2_foregroundBlur_1466_5093"/>
</filter>
<filter id="filter4_df_1466_5093" x="1.39181" y="0.363062" width="102.605" height="87.7983" filterUnits="userSpaceOnUse" color-interpolation-filters="sRGB">
<feFlood flood-opacity="0" result="BackgroundImageFix"/>
<feColorMatrix in="SourceAlpha" type="matrix" values="0 0 0 0 0 0 0 0 0 0 0 0 0 0 0 0 0 0 127 0" result="hardAlpha"/>
<feOffset/>
<feGaussianBlur stdDeviation="8.61562"/>
<feComposite in2="hardAlpha" operator="out"/>
<feColorMatrix type="matrix" values="0 0 0 0 1 0 0 0 0 1 0 0 0 0 1 0 0 0 0.5 0"/>
<feBlend mode="normal" in2="BackgroundImageFix" result="effect1_dropShadow_1466_5093"/>
<feBlend mode="normal" in="SourceGraphic" in2="effect1_dropShadow_1466_5093" result="shape"/>
<feGaussianBlur stdDeviation="0.430781" result="effect2_foregroundBlur_1466_5093"/>
</filter>
<filter id="filter5_d_1466_5093" x="144.403" y="50.6318" width="8.61564" height="8.61564" filterUnits="userSpaceOnUse" color-interpolation-filters="sRGB">
<feFlood flood-opacity="0" result="BackgroundImageFix"/>
<feColorMatrix in="SourceAlpha" type="matrix" values="0 0 0 0 0 0 0 0 0 0 0 0 0 0 0 0 0 0 127 0" result="hardAlpha"/>
<feMorphology radius="1.72312" operator="dilate" in="SourceAlpha" result="effect1_dropShadow_1466_5093"/>
<feOffset/>
<feGaussianBlur stdDeviation="0.861562"/>
<feComposite in2="hardAlpha" operator="out"/>
<feColorMatrix type="matrix" values="0 0 0 0 1 0 0 0 0 1 0 0 0 0 1 0 0 0 1 0"/>
<feBlend mode="normal" in2="BackgroundImageFix" result="effect1_dropShadow_1466_5093"/>
<feBlend mode="normal" in="SourceGraphic" in2="effect1_dropShadow_1466_5093" result="shape"/>
</filter>
<filter id="filter6_d_1466_5093" x="140.095" y="41.1548" width="6.89252" height="6.89252" filterUnits="userSpaceOnUse" color-interpolation-filters="sRGB">
<feFlood flood-opacity="0" result="BackgroundImageFix"/>
<feColorMatrix in="SourceAlpha" type="matrix" values="0 0 0 0 0 0 0 0 0 0 0 0 0 0 0 0 0 0 127 0" result="hardAlpha"/>
<feMorphology radius="0.861562" operator="dilate" in="SourceAlpha" result="effect1_dropShadow_1466_5093"/>
<feOffset/>
<feGaussianBlur stdDeviation="0.861562"/>
<feComposite in2="hardAlpha" operator="out"/>
<feColorMatrix type="matrix" values="0 0 0 0 0.0162877 0 0 0 0 1 0 0 0 0 0.822932 0 0 0 1 0"/>
<feBlend mode="normal" in2="BackgroundImageFix" result="effect1_dropShadow_1466_5093"/>
<feBlend mode="normal" in="SourceGraphic" in2="effect1_dropShadow_1466_5093" result="shape"/>
</filter>
<filter id="filter7_d_1466_5093" x="157.327" y="37.7085" width="6.89252" height="6.89252" filterUnits="userSpaceOnUse" color-interpolation-filters="sRGB">
<feFlood flood-opacity="0" result="BackgroundImageFix"/>
<feColorMatrix in="SourceAlpha" type="matrix" values="0 0 0 0 0 0 0 0 0 0 0 0 0 0 0 0 0 0 127 0" result="hardAlpha"/>
<feMorphology radius="0.861562" operator="dilate" in="SourceAlpha" result="effect1_dropShadow_1466_5093"/>
<feOffset/>
<feGaussianBlur stdDeviation="0.861562"/>
<feComposite in2="hardAlpha" operator="out"/>
<feColorMatrix type="matrix" values="0 0 0 0 1 0 0 0 0 0.0156863 0 0 0 0 0.606275 0 0 0 1 0"/>
<feBlend mode="normal" in2="BackgroundImageFix" result="effect1_dropShadow_1466_5093"/>
<feBlend mode="normal" in="SourceGraphic" in2="effect1_dropShadow_1466_5093" result="shape"/>
</filter>
<filter id="filter8_d_1466_5093" x="14.4153" y="13.5847" width="6.89252" height="6.89252" filterUnits="userSpaceOnUse" color-interpolation-filters="sRGB">
<feFlood flood-opacity="0" result="BackgroundImageFix"/>
<feColorMatrix in="SourceAlpha" type="matrix" values="0 0 0 0 0 0 0 0 0 0 0 0 0 0 0 0 0 0 127 0" result="hardAlpha"/>
<feMorphology radius="0.861562" operator="dilate" in="SourceAlpha" result="effect1_dropShadow_1466_5093"/>
<feOffset/>
<feGaussianBlur stdDeviation="0.861562"/>
<feComposite in2="hardAlpha" operator="out"/>
<feColorMatrix type="matrix" values="0 0 0 0 0.388235 0 0 0 0 0.556863 0 0 0 0 1 0 0 0 1 0"/>
<feBlend mode="normal" in2="BackgroundImageFix" result="effect1_dropShadow_1466_5093"/>
<feBlend mode="normal" in="SourceGraphic" in2="effect1_dropShadow_1466_5093" result="shape"/>
</filter>
<filter id="filter9_d_1466_5093" x="18.7232" y="7.55387" width="8.61564" height="8.61564" filterUnits="userSpaceOnUse" color-interpolation-filters="sRGB">
<feFlood flood-opacity="0" result="BackgroundImageFix"/>
<feColorMatrix in="SourceAlpha" type="matrix" values="0 0 0 0 0 0 0 0 0 0 0 0 0 0 0 0 0 0 127 0" result="hardAlpha"/>
<feMorphology radius="1.72312" operator="dilate" in="SourceAlpha" result="effect1_dropShadow_1466_5093"/>
<feOffset/>
<feGaussianBlur stdDeviation="0.861562"/>
<feComposite in2="hardAlpha" operator="out"/>
<feColorMatrix type="matrix" values="0 0 0 0 1 0 0 0 0 0.821394 0 0 0 0 0.362121 0 0 0 1 0"/>
<feBlend mode="normal" in2="BackgroundImageFix" result="effect1_dropShadow_1466_5093"/>
<feBlend mode="normal" in="SourceGraphic" in2="effect1_dropShadow_1466_5093" result="shape"/>
</filter>
<filter id="filter10_b_1466_5093" x="7.6403" y="49.1404" width="145.372" height="113.219" filterUnits="userSpaceOnUse" color-interpolation-filters="sRGB">
<feFlood flood-opacity="0" result="BackgroundImageFix"/>
<feGaussianBlur in="BackgroundImage" stdDeviation="7.17985"/>
<feComposite in2="SourceAlpha" operator="in" result="effect1_backgroundBlur_1466_5093"/>
<feBlend mode="normal" in="SourceGraphic" in2="effect1_backgroundBlur_1466_5093" result="shape"/>
</filter>
<linearGradient id="paint0_linear_1466_5093" x1="106.896" y1="52.8558" x2="107.377" y2="106.826" gradientUnits="userSpaceOnUse">
<stop stop-color="#40FFC6"/>
<stop offset="1" stop-color="#4F40FF"/>
</linearGradient>
<linearGradient id="paint1_linear_1466_5093" x1="48.1776" y1="96.0216" x2="141.671" y2="89.7698" gradientUnits="userSpaceOnUse">
<stop stop-color="white"/>
<stop offset="1" stop-color="white" stop-opacity="0"/>
</linearGradient>
<linearGradient id="paint2_linear_1466_5093" x1="82.2582" y1="20.217" x2="86.645" y2="45.6043" gradientUnits="userSpaceOnUse">
<stop stop-color="#6C89F0"/>
<stop offset="0.979167" stop-color="#52E28C"/>
</linearGradient>
<linearGradient id="paint3_linear_1466_5093" x1="12.8918" y1="67.2788" x2="56.929" y2="40.5231" gradientUnits="userSpaceOnUse">
<stop stop-color="white"/>
<stop offset="1" stop-color="white" stop-opacity="0"/>
</linearGradient>
<linearGradient id="paint4_linear_1466_5093" x1="10.407" y1="72.829" x2="13.2234" y2="9.55293" gradientUnits="userSpaceOnUse">
<stop stop-color="#4FDCEF"/>
<stop offset="1" stop-color="#622BFF"/>
</linearGradient>
<linearGradient id="paint5_linear_1466_5093" x1="72" y1="54" x2="53.6076" y2="175.335" gradientUnits="userSpaceOnUse">
<stop offset="0.420224" stop-color="white" stop-opacity="0.02"/>
<stop offset="1" stop-color="#F4F4F4" stop-opacity="0.81"/>
</linearGradient>
<linearGradient id="paint6_linear_1466_5093" x1="132.459" y1="72.4261" x2="12.3456" y2="127.834" gradientUnits="userSpaceOnUse">
<stop stop-color="white" stop-opacity="0.3"/>
<stop offset="1" stop-color="white" stop-opacity="0"/>
</linearGradient>
</defs>
</svg>
